<svg width="20" height="20" viewBox="0 0 20 20" fill="none" xmlns="http://www.w3.org/2000/svg">
<path fill-rule="evenodd" clip-rule="evenodd" d="M9.39997 0C8.62677 0 7.99997 0.626801 7.99997 1.4L7.99997 8L1.4 8C0.626801 8 0 8.6268 0 9.4L0 10.6C0 11.3732 0.626801 12 1.4 12L7.99997 12L7.99997 18.6C7.99997 19.3732 8.62677 20 9.39997 20H10.6C11.3732 20 12 19.3732 12 18.6V12L18.6 12C19.3732 12 20 11.3732 20 10.6V9.4C20 8.6268 19.3732 8 18.6 8L12 8L12 1.4C12 0.626801 11.3732 0 10.6 0L9.39997 0Z" fill="#18224C"/>
</svg>
