<svg width="240" height="57" viewBox="0 0 240 57" fill="none" xmlns="http://www.w3.org/2000/svg">
<path d="M51.7196 55.8873H42.4521L39.8851 51.355L35.2384 43.1758L26.4318 27.6369L21.7717 19.4312L14.1237 5.94019H23.4435L26.4318 11.2125L31.0785 19.4312L39.8851 34.9835L44.5189 43.1758L51.7196 55.8873Z" fill="#F69323"/>
<path d="M52.8505 56.5478H42.0687L12.9914 5.27966H23.8265L52.8505 56.5478ZM42.8351 55.2264H50.588L23.0604 6.60109H15.2553L42.8351 55.2264Z" fill="#F69323"/>
<path d="M65.6335 5.94019L52.1139 29.7939C50.9212 31.898 48.1697 32.4913 46.2212 31.065C44.5613 29.8495 44.0744 27.5774 45.0896 25.7849L56.3267 5.94054H65.6335V5.94019Z" fill="#F69323"/>
<path d="M48.604 32.5047C47.6166 32.5047 46.6435 32.1924 45.8336 31.5988C43.9015 30.1844 43.3364 27.5443 44.5178 25.4585L55.9437 5.27966H66.7658L52.686 30.1206C52.0245 31.2871 50.896 32.1174 49.589 32.3994C49.2628 32.4699 48.9323 32.5047 48.604 32.5047ZM56.7098 6.60109L45.6621 26.1116C44.8118 27.613 45.2187 29.5129 46.6095 30.5319C47.3865 31.1002 48.3715 31.3093 49.3129 31.1079C50.2534 30.9048 51.0658 30.3073 51.5421 29.4671L64.5023 6.60109H56.7098Z" fill="#F69323"/>
<path d="M20.8172 37.5238L10.4114 55.8872H1.13091L13.801 33.5187C14.9908 31.418 17.7367 30.8233 19.6835 32.2451C21.3448 33.4584 21.8331 35.7312 20.8172 37.5238Z" fill="#F69323"/>
<path d="M10.7945 56.5478H0L13.2288 33.1927C13.8883 32.0283 15.0143 31.1984 16.3192 30.9156C17.6227 30.6336 18.9911 30.9234 20.0704 31.711C22.0053 33.1233 22.5721 35.763 21.3893 37.8506L10.7945 56.5478ZM2.26251 55.2264H10.0284L20.2451 37.1978C21.0961 35.695 20.6881 33.7958 19.2962 32.7797C18.5193 32.2138 17.5357 32.0054 16.5967 32.2075C15.6576 32.4107 14.847 33.0082 14.3727 33.8455L2.26251 55.2264Z" fill="#F69323"/>
<path d="M39.5249 15.3162C35.4422 15.3162 32.1203 11.9819 32.1203 7.88377C32.1203 3.78568 35.4422 0.451294 39.5249 0.451294C43.6075 0.451294 46.9294 3.78568 46.9294 7.88377C46.9294 11.9819 43.6075 15.3162 39.5249 15.3162ZM39.5249 3.0938C36.8933 3.0938 34.7529 5.24231 34.7529 7.88377C34.7529 10.5252 36.8933 12.6737 39.5249 12.6737C42.1564 12.6737 44.2968 10.5252 44.2968 7.88377C44.2968 5.24231 42.1564 3.0938 39.5249 3.0938Z" fill="#F69323"/>
<path d="M96.1076 48.0818L80.5661 24.5172V48.0818H77.4421V18.6987H80.4023L95.9428 42.1803V18.6987H99.0668V48.0818H96.1076Z" fill="white"/>
<path d="M127.345 42.4067C126.837 43.6313 126.124 44.6834 125.207 45.5637C124.288 46.4443 123.206 47.1252 121.959 47.6065C120.711 48.0875 119.349 48.3287 117.869 48.3287C116.388 48.3287 115.024 48.0875 113.778 47.6065C112.53 47.1252 111.454 46.4443 110.55 45.5637C109.646 44.6834 108.939 43.6313 108.433 42.4067C107.926 41.1825 107.672 39.8413 107.672 38.3829V18.6978H110.797V38.1351C110.797 39.2635 110.961 40.2811 111.291 41.1888C111.619 42.0969 112.091 42.8676 112.708 43.5C113.325 44.1331 114.072 44.6285 114.949 44.9859C115.826 45.3436 116.799 45.5221 117.868 45.5221C118.937 45.5221 119.909 45.3436 120.787 44.9859C121.664 44.6285 122.411 44.1331 123.028 43.5C123.644 42.8676 124.123 42.0969 124.467 41.1888C124.809 40.2811 124.98 39.2635 124.98 38.1351V18.6978H128.104V38.3829C128.105 39.8417 127.852 41.1828 127.345 42.4067Z" fill="white"/>
<path d="M153.526 48.0812L146.865 35.0405H139.834V48.0812H136.71V18.6981H147.934C149.194 18.6981 150.36 18.8837 151.428 19.2551C152.498 19.6266 153.415 20.1632 154.183 20.8646C154.949 21.566 155.546 22.4265 155.971 23.4437C156.396 24.4616 156.609 25.6039 156.609 26.869C156.609 29.015 156.019 30.7688 154.84 32.1307C153.661 33.4923 152.127 34.3662 150.236 34.7507L157.184 48.0805H153.526V48.0812ZM153.484 26.9105C153.484 25.0947 152.942 23.7398 151.86 22.8459C150.777 21.9519 149.373 21.5047 147.645 21.5047H139.834V32.2754H147.645C149.372 32.2754 150.777 31.836 151.86 30.9551C152.942 30.0745 153.484 28.7263 153.484 26.9105Z" fill="white"/>
<path d="M164.564 48.0812V18.6981H182.737V21.5044H167.689V31.8624H180.516V34.669H167.689V45.2746H182.737V48.0812H164.564Z" fill="white"/>
<path d="M209.237 48.0812L206.894 41.4371H194.108L191.764 48.0812H188.435L199.206 18.6981H201.837L212.567 48.0812H209.237ZM200.563 23.1962L195.053 38.7132H205.989L200.563 23.1962Z" fill="white"/>
<path d="M239.279 39.9512C239.279 41.2719 239.066 42.4419 238.641 43.4588C238.215 44.4771 237.619 45.3302 236.853 46.0175C236.085 46.7052 235.167 47.221 234.098 47.565C233.029 47.9093 231.851 48.0808 230.563 48.0808H219.174V18.6978H230.192C231.453 18.6978 232.618 18.877 233.687 19.2343C234.757 19.5921 235.667 20.1079 236.421 20.7818C237.175 21.4561 237.764 22.2747 238.189 23.2374C238.614 24.2007 238.826 25.3007 238.826 26.5387C238.826 28.1069 238.415 29.4551 237.593 30.5832C236.771 31.7117 235.743 32.5092 234.509 32.9764C235.908 33.4993 237.051 34.3524 237.943 35.5352C238.832 36.7189 239.279 38.1907 239.279 39.9512ZM235.701 26.5802C235.701 25.7 235.551 24.9436 235.248 24.3106C234.946 23.6782 234.543 23.1553 234.037 22.7427C233.529 22.33 232.926 22.0205 232.227 21.8142C231.528 21.6079 230.768 21.5047 229.946 21.5047H222.298V31.698H229.946C230.768 31.698 231.528 31.5948 232.227 31.3885C232.926 31.1821 233.529 30.8726 234.037 30.46C234.543 30.0473 234.946 29.5178 235.248 28.871C235.551 28.2245 235.701 27.4612 235.701 26.5802ZM236.153 39.8688C236.153 38.2182 235.626 36.9112 234.571 35.9482C233.515 34.9852 232.084 34.5039 230.274 34.5039H222.298V45.2742H230.274C232.084 45.2742 233.515 44.7862 234.571 43.8095C235.626 42.8335 236.153 41.5198 236.153 39.8688Z" fill="white"/>
</svg>
