<svg width="95" height="95" viewBox="0 0 95 95" fill="none" xmlns="http://www.w3.org/2000/svg">
<g clip-path="url(#clip0_72_310)">
<path d="M47.5 95C73.7335 95 95 73.7335 95 47.5C95 21.2665 73.7335 0 47.5 0C21.2665 0 0 21.2665 0 47.5C0 73.7335 21.2665 95 47.5 95Z" fill="#197DFF"/>
<path opacity="0.3" d="M35.3628 68.9274L59.7871 93.3517C80.0158 87.9574 95 69.5268 95 47.5C95 47.0505 95 46.6009 95 46.1514L75.8202 28.47L35.3628 68.9274Z" fill="#003D8C"/>
<path d="M48.6987 58.1388C50.7965 60.2366 50.7965 63.8328 48.6987 65.9306L44.3533 70.276C42.2555 72.3738 38.6593 72.3738 36.5615 70.276L17.5315 51.0962C15.4337 48.9984 15.4337 45.4022 17.5315 43.3044L21.877 38.959C23.9748 36.8612 27.571 36.8612 29.6688 38.959L48.6987 58.1388Z" fill="white"/>
<path d="M65.3312 25.0237C67.429 22.9259 71.0252 22.9259 73.123 25.0237L77.4684 29.3691C79.5662 31.4669 79.5662 35.0631 77.4684 37.1609L44.5031 69.9764C42.4053 72.0741 38.8091 72.0741 36.7113 69.9764L32.3659 65.6309C30.2681 63.5331 30.2681 59.9369 32.3659 57.8391L65.3312 25.0237Z" fill="white"/>
</g>
<defs>
<clipPath id="clip0_72_310">
<rect width="95" height="95" fill="white"/>
</clipPath>
</defs>
</svg>
