<svg width="18" height="18" viewBox="0 0 18 18" fill="none" xmlns="http://www.w3.org/2000/svg">
<g clip-path="url(#clip0_193_231)">
<path d="M6 5.0625C6 4.33875 5.41125 3.75 4.6875 3.75H3.75V0.75C3.75 0.336 3.41475 0 3 0C2.58525 0 2.25 0.336 2.25 0.75V3.75H1.3125C0.58875 3.75 0 4.33875 0 5.0625V6.1875C0 6.91125 0.58875 7.5 1.3125 7.5H2.25V17.25C2.25 17.664 2.58525 18 3 18C3.41475 18 3.75 17.664 3.75 17.25V7.5H4.6875C5.41125 7.5 6 6.91125 6 6.1875V5.0625Z" fill="#0F2644"/>
<path d="M16.6875 3.75H15.75V0.75C15.75 0.336 15.4147 0 15 0C14.5852 0 14.25 0.336 14.25 0.75V3.75H13.3125C12.5887 3.75 12 4.33875 12 5.0625V6.1875C12 6.91125 12.5887 7.5 13.3125 7.5H14.25V17.25C14.25 17.664 14.5852 18 15 18C15.4147 18 15.75 17.664 15.75 17.25V7.5H16.6875C17.4112 7.5 18 6.91125 18 6.1875V5.0625C18 4.33875 17.4112 3.75 16.6875 3.75Z" fill="#0F2644"/>
<path d="M10.6875 11.25H9.74999V0.75C9.74999 0.336 9.41474 0 8.99999 0C8.58525 0 8.25 0.336 8.25 0.75V11.25H7.3125C6.58875 11.25 6 11.8387 6 12.5625V13.6875C6 14.4113 6.58875 15 7.3125 15H8.25V17.25C8.25 17.664 8.58525 18 8.99999 18C9.41474 18 9.74999 17.664 9.74999 17.25V15H10.6875C11.4112 15 12 14.4113 12 13.6875V12.5625C12 11.8387 11.4112 11.25 10.6875 11.25Z" fill="#0F2644"/>
</g>
<defs>
<clipPath id="clip0_193_231">
<rect width="18" height="18" fill="white"/>
</clipPath>
</defs>
</svg>
