<svg width="48" height="48" viewBox="0 0 48 48" fill="none" xmlns="http://www.w3.org/2000/svg">
<rect width="48" height="48" rx="6" fill="#EBEEF5"/>
<g clip-path="url(#clip0_734_2188)">
<path d="M12 16.2422L12 14.8359L28.9687 14.8359L28.9687 13.4297L33.1875 13.4297L33.1875 14.8359L36 14.8359L36 16.2422L33.1875 16.2422L33.1875 17.6484L28.9687 17.6484L28.9687 16.2422L12 16.2422Z" fill="#003D8C"/>
<path d="M28.9688 33.1641L12 33.1641L12 31.7578L28.9688 31.7578L28.9688 30.3516L33.1875 30.3516L33.1875 31.7578L36 31.7578L36 33.1641L33.1875 33.1641L33.1875 34.5703L28.9688 34.5703L28.9688 33.1641Z" fill="#003D8C"/>
<path d="M12 27.5391L12 26.1328L22.4062 26.1328L22.4062 24.7266L26.625 24.7266L26.625 26.1328L36 26.1328L36 27.5391L26.625 27.5391L26.625 28.9453L22.4062 28.9453L22.4062 27.5391L12 27.5391Z" fill="#003D8C"/>
<path d="M12 21.8672L12 20.4609L14.5149 20.4609L14.5149 19.0547L18.7337 19.0547L18.7337 20.4609L36 20.4609L36 21.8672L18.7337 21.8672L18.7337 23.2734L14.5149 23.2734L14.5149 21.8672L12 21.8672Z" fill="#003D8C"/>
</g>
<defs>
<clipPath id="clip0_734_2188">
<rect width="24" height="24" fill="white" transform="matrix(4.37114e-08 1 1 -4.37114e-08 12 12)"/>
</clipPath>
</defs>
</svg>
