<svg width="328" height="579" viewBox="0 0 328 579" fill="none" xmlns="http://www.w3.org/2000/svg">
<path d="M328 0H0V579H328V0Z" fill="#F8F9FC"/>
<path d="M46.8062 538.074C46.8062 539.438 46.5859 540.451 46.1455 541.114C45.7087 541.776 45.0391 542.107 44.1367 542.107C43.263 542.107 42.6006 541.765 42.1494 541.082C41.6982 540.398 41.4727 539.395 41.4727 538.074C41.4727 536.688 41.6911 535.667 42.1279 535.012C42.5684 534.353 43.238 534.024 44.1367 534.024C45.014 534.024 45.6782 534.368 46.1294 535.055C46.5806 535.743 46.8062 536.749 46.8062 538.074ZM42.751 538.074C42.751 539.144 42.8602 539.909 43.0786 540.367C43.3006 540.826 43.6533 541.055 44.1367 541.055C44.6201 541.055 44.9728 540.822 45.1948 540.356C45.4204 539.891 45.5332 539.13 45.5332 538.074C45.5332 537.021 45.4204 536.26 45.1948 535.791C44.9728 535.318 44.6201 535.082 44.1367 535.082C43.6533 535.082 43.3006 535.313 43.0786 535.775C42.8602 536.237 42.751 537.003 42.751 538.074ZM51.4736 542H50.2114V536.93C50.2114 536.325 50.2257 535.845 50.2544 535.49C50.172 535.576 50.07 535.671 49.9482 535.775C49.8301 535.879 49.429 536.208 48.7451 536.763L48.1113 535.963L50.4209 534.147H51.4736V542ZM87.9487 538.074C87.9487 539.438 87.7285 540.451 87.2881 541.114C86.8512 541.776 86.1816 542.107 85.2793 542.107C84.4056 542.107 83.7432 541.765 83.292 541.082C82.8408 540.398 82.6152 539.395 82.6152 538.074C82.6152 536.688 82.8337 535.667 83.2705 535.012C83.7109 534.353 84.3805 534.024 85.2793 534.024C86.1566 534.024 86.8208 534.368 87.272 535.055C87.7231 535.743 87.9487 536.749 87.9487 538.074ZM83.8936 538.074C83.8936 539.144 84.0028 539.909 84.2212 540.367C84.4432 540.826 84.7959 541.055 85.2793 541.055C85.7627 541.055 86.1154 540.822 86.3374 540.356C86.563 539.891 86.6758 539.13 86.6758 538.074C86.6758 537.021 86.563 536.26 86.3374 535.791C86.1154 535.318 85.7627 535.082 85.2793 535.082C84.7959 535.082 84.4432 535.313 84.2212 535.775C84.0028 536.237 83.8936 537.003 83.8936 538.074ZM94.2329 542H88.9102V541.044L90.9351 539.008C91.533 538.396 91.9287 537.963 92.1221 537.708C92.319 537.451 92.4622 537.209 92.5518 536.983C92.6413 536.758 92.686 536.516 92.686 536.258C92.686 535.904 92.5786 535.625 92.3638 535.42C92.1525 535.216 91.8589 535.114 91.4829 535.114C91.1821 535.114 90.8903 535.17 90.6074 535.281C90.3281 535.392 90.0041 535.592 89.6353 535.882L88.9531 535.05C89.39 534.681 89.8143 534.42 90.2261 534.266C90.6379 534.112 91.0765 534.035 91.542 534.035C92.2725 534.035 92.8579 534.226 93.2983 534.609C93.7388 534.989 93.959 535.501 93.959 536.146C93.959 536.5 93.8945 536.837 93.7656 537.155C93.6403 537.474 93.4451 537.803 93.1802 538.144C92.9188 538.48 92.4819 538.937 91.8696 539.513L90.5054 540.834V540.888H94.2329V542ZM123.376 538.074C123.376 539.438 123.156 540.451 122.716 541.114C122.279 541.776 121.609 542.107 120.707 542.107C119.833 542.107 119.171 541.765 118.72 541.082C118.269 540.398 118.043 539.395 118.043 538.074C118.043 536.688 118.261 535.667 118.698 535.012C119.139 534.353 119.808 534.024 120.707 534.024C121.584 534.024 122.249 534.368 122.7 535.055C123.151 535.743 123.376 536.749 123.376 538.074ZM119.321 538.074C119.321 539.144 119.431 539.909 119.649 540.367C119.871 540.826 120.224 541.055 120.707 541.055C121.19 541.055 121.543 540.822 121.765 540.356C121.991 539.891 122.104 539.13 122.104 538.074C122.104 537.021 121.991 536.26 121.765 535.791C121.543 535.318 121.19 535.082 120.707 535.082C120.224 535.082 119.871 535.313 119.649 535.775C119.431 536.237 119.321 537.003 119.321 538.074ZM129.365 535.952C129.365 536.45 129.22 536.865 128.93 537.198C128.64 537.528 128.232 537.75 127.706 537.864V537.907C128.336 537.986 128.808 538.183 129.124 538.498C129.439 538.81 129.596 539.225 129.596 539.744C129.596 540.5 129.329 541.083 128.796 541.495C128.262 541.903 127.503 542.107 126.519 542.107C125.648 542.107 124.914 541.966 124.316 541.683V540.561C124.649 540.725 125.002 540.852 125.375 540.942C125.747 541.031 126.105 541.076 126.449 541.076C127.057 541.076 127.512 540.963 127.813 540.738C128.114 540.512 128.264 540.163 128.264 539.69C128.264 539.271 128.098 538.964 127.765 538.767C127.432 538.57 126.909 538.471 126.196 538.471H125.514V537.445H126.207C127.46 537.445 128.087 537.012 128.087 536.146C128.087 535.809 127.978 535.549 127.759 535.367C127.541 535.184 127.219 535.093 126.792 535.093C126.495 535.093 126.209 535.136 125.933 535.222C125.657 535.304 125.332 535.467 124.956 535.71L124.338 534.83C125.058 534.3 125.894 534.035 126.846 534.035C127.638 534.035 128.255 534.205 128.699 534.545C129.143 534.885 129.365 535.354 129.365 535.952ZM158.804 538.074C158.804 539.438 158.584 540.451 158.144 541.114C157.707 541.776 157.037 542.107 156.135 542.107C155.261 542.107 154.599 541.765 154.147 541.082C153.696 540.398 153.471 539.395 153.471 538.074C153.471 536.688 153.689 535.667 154.126 535.012C154.566 534.353 155.236 534.024 156.135 534.024C157.012 534.024 157.676 534.368 158.127 535.055C158.579 535.743 158.804 536.749 158.804 538.074ZM154.749 538.074C154.749 539.144 154.858 539.909 155.077 540.367C155.299 540.826 155.651 541.055 156.135 541.055C156.618 541.055 156.971 540.822 157.193 540.356C157.418 539.891 157.531 539.13 157.531 538.074C157.531 537.021 157.418 536.26 157.193 535.791C156.971 535.318 156.618 535.082 156.135 535.082C155.651 535.082 155.299 535.313 155.077 535.775C154.858 536.237 154.749 537.003 154.749 538.074ZM165.368 540.287H164.31V542H163.08V540.287H159.492V539.314L163.08 534.126H164.31V539.239H165.368V540.287ZM163.08 539.239V537.268C163.08 536.566 163.097 535.992 163.133 535.544H163.09C162.99 535.78 162.833 536.067 162.618 536.403L160.668 539.239H163.08ZM191.375 538.074C191.375 539.438 191.154 540.451 190.714 541.114C190.277 541.776 189.607 542.107 188.705 542.107C187.831 542.107 187.169 541.765 186.718 541.082C186.267 540.398 186.041 539.395 186.041 538.074C186.041 536.688 186.259 535.667 186.696 535.012C187.137 534.353 187.806 534.024 188.705 534.024C189.582 534.024 190.247 534.368 190.698 535.055C191.149 535.743 191.375 536.749 191.375 538.074ZM187.319 538.074C187.319 539.144 187.429 539.909 187.647 540.367C187.869 540.826 188.222 541.055 188.705 541.055C189.188 541.055 189.541 540.822 189.763 540.356C189.989 539.891 190.102 539.13 190.102 538.074C190.102 537.021 189.989 536.26 189.763 535.791C189.541 535.318 189.188 535.082 188.705 535.082C188.222 535.082 187.869 535.313 187.647 535.775C187.429 536.237 187.319 537.003 187.319 538.074ZM195 537.096C195.791 537.096 196.418 537.306 196.88 537.725C197.342 538.144 197.573 538.715 197.573 539.438C197.573 540.276 197.31 540.931 196.783 541.404C196.26 541.873 195.516 542.107 194.549 542.107C193.672 542.107 192.982 541.966 192.481 541.683V540.539C192.771 540.704 193.104 540.831 193.48 540.92C193.856 541.01 194.205 541.055 194.527 541.055C195.097 541.055 195.53 540.928 195.827 540.673C196.124 540.419 196.273 540.047 196.273 539.556C196.273 538.618 195.675 538.149 194.479 538.149C194.311 538.149 194.103 538.167 193.856 538.203C193.609 538.235 193.392 538.272 193.206 538.315L192.642 537.982L192.943 534.147H197.025V535.27H194.055L193.877 537.214C194.003 537.193 194.155 537.168 194.334 537.139C194.517 537.111 194.739 537.096 195 537.096ZM223.945 538.074C223.945 539.438 223.725 540.451 223.284 541.114C222.847 541.776 222.178 542.107 221.275 542.107C220.402 542.107 219.739 541.765 219.288 541.082C218.837 540.398 218.611 539.395 218.611 538.074C218.611 536.688 218.83 535.667 219.267 535.012C219.707 534.353 220.377 534.024 221.275 534.024C222.153 534.024 222.817 534.368 223.268 535.055C223.719 535.743 223.945 536.749 223.945 538.074ZM219.89 538.074C219.89 539.144 219.999 539.909 220.217 540.367C220.439 540.826 220.792 541.055 221.275 541.055C221.759 541.055 222.111 540.822 222.333 540.356C222.559 539.891 222.672 539.13 222.672 538.074C222.672 537.021 222.559 536.26 222.333 535.791C222.111 535.318 221.759 535.082 221.275 535.082C220.792 535.082 220.439 535.313 220.217 535.775C219.999 536.237 219.89 537.003 219.89 538.074ZM224.928 538.654C224.928 535.582 226.179 534.045 228.682 534.045C229.076 534.045 229.409 534.076 229.681 534.137V535.189C229.409 535.111 229.094 535.071 228.736 535.071C227.894 535.071 227.262 535.297 226.84 535.748C226.417 536.199 226.188 536.923 226.152 537.918H226.217C226.385 537.628 226.621 537.404 226.926 537.247C227.23 537.085 227.588 537.005 228 537.005C228.713 537.005 229.268 537.223 229.665 537.66C230.062 538.097 230.261 538.69 230.261 539.438C230.261 540.262 230.03 540.913 229.568 541.393C229.11 541.869 228.483 542.107 227.688 542.107C227.126 542.107 226.638 541.973 226.222 541.705C225.807 541.432 225.486 541.039 225.261 540.523C225.039 540.004 224.928 539.381 224.928 538.654ZM227.667 541.065C228.1 541.065 228.433 540.926 228.666 540.646C228.902 540.367 229.021 539.968 229.021 539.449C229.021 538.998 228.91 538.643 228.688 538.385C228.469 538.127 228.14 537.999 227.699 537.999C227.427 537.999 227.176 538.058 226.947 538.176C226.718 538.29 226.537 538.45 226.405 538.654C226.272 538.854 226.206 539.06 226.206 539.271C226.206 539.776 226.342 540.202 226.614 540.55C226.89 540.894 227.241 541.065 227.667 541.065ZM259.373 538.074C259.373 539.438 259.152 540.451 258.712 541.114C258.275 541.776 257.605 542.107 256.703 542.107C255.829 542.107 255.167 541.765 254.716 541.082C254.265 540.398 254.039 539.395 254.039 538.074C254.039 536.688 254.257 535.667 254.694 535.012C255.135 534.353 255.804 534.024 256.703 534.024C257.58 534.024 258.245 534.368 258.696 535.055C259.147 535.743 259.373 536.749 259.373 538.074ZM255.317 538.074C255.317 539.144 255.427 539.909 255.645 540.367C255.867 540.826 256.22 541.055 256.703 541.055C257.187 541.055 257.539 540.822 257.761 540.356C257.987 539.891 258.1 539.13 258.1 538.074C258.1 537.021 257.987 536.26 257.761 535.791C257.539 535.318 257.187 535.082 256.703 535.082C256.22 535.082 255.867 535.313 255.645 535.775C255.427 536.237 255.317 537.003 255.317 538.074ZM261.226 542L264.33 535.27H260.248V534.158H265.678V535.039L262.59 542H261.226ZM294.8 538.074C294.8 539.438 294.58 540.451 294.14 541.114C293.703 541.776 293.033 542.107 292.131 542.107C291.257 542.107 290.595 541.765 290.144 541.082C289.692 540.398 289.467 539.395 289.467 538.074C289.467 536.688 289.685 535.667 290.122 535.012C290.562 534.353 291.232 534.024 292.131 534.024C293.008 534.024 293.672 534.368 294.124 535.055C294.575 535.743 294.8 536.749 294.8 538.074ZM290.745 538.074C290.745 539.144 290.854 539.909 291.073 540.367C291.295 540.826 291.647 541.055 292.131 541.055C292.614 541.055 292.967 540.822 293.189 540.356C293.415 539.891 293.527 539.13 293.527 538.074C293.527 537.021 293.415 536.26 293.189 535.791C292.967 535.318 292.614 535.082 292.131 535.082C291.647 535.082 291.295 535.313 291.073 535.775C290.854 536.237 290.745 537.003 290.745 538.074ZM298.415 534.045C299.16 534.045 299.749 534.217 300.182 534.561C300.615 534.901 300.832 535.358 300.832 535.931C300.832 536.736 300.349 537.377 299.382 537.854C299.998 538.161 300.435 538.486 300.692 538.826C300.954 539.166 301.084 539.545 301.084 539.964C301.084 540.612 300.846 541.132 300.37 541.522C299.894 541.912 299.249 542.107 298.437 542.107C297.584 542.107 296.924 541.925 296.455 541.56C295.986 541.194 295.751 540.677 295.751 540.007C295.751 539.57 295.873 539.178 296.116 538.831C296.363 538.48 296.766 538.169 297.325 537.896C296.845 537.61 296.503 537.307 296.299 536.989C296.095 536.67 295.993 536.312 295.993 535.915C295.993 535.345 296.216 534.892 296.664 534.556C297.112 534.215 297.695 534.045 298.415 534.045ZM296.959 539.964C296.959 540.337 297.09 540.627 297.352 540.834C297.613 541.039 297.967 541.141 298.415 541.141C298.877 541.141 299.235 541.035 299.489 540.824C299.747 540.609 299.876 540.319 299.876 539.954C299.876 539.664 299.758 539.399 299.521 539.159C299.285 538.919 298.927 538.697 298.447 538.493L298.292 538.423C297.819 538.631 297.479 538.86 297.271 539.11C297.063 539.357 296.959 539.642 296.959 539.964ZM298.404 535.018C298.046 535.018 297.758 535.107 297.54 535.286C297.321 535.462 297.212 535.701 297.212 536.006C297.212 536.192 297.251 536.359 297.33 536.505C297.409 536.652 297.523 536.786 297.674 536.908C297.824 537.026 298.078 537.17 298.437 537.338C298.866 537.148 299.169 536.949 299.344 536.742C299.523 536.53 299.613 536.285 299.613 536.006C299.613 535.701 299.502 535.462 299.28 535.286C299.061 535.107 298.77 535.018 298.404 535.018Z" fill="#CBCFD3"/>
<path d="M23.1895 118H21.9272V112.93C21.9272 112.325 21.9416 111.845 21.9702 111.49C21.8879 111.576 21.7858 111.671 21.6641 111.775C21.5459 111.879 21.1449 112.208 20.4609 112.763L19.8271 111.963L22.1367 110.147H23.1895V118ZM31.0903 114.074C31.0903 115.438 30.8701 116.451 30.4297 117.114C29.9928 117.776 29.3232 118.107 28.4209 118.107C27.5472 118.107 26.8848 117.765 26.4336 117.082C25.9824 116.398 25.7568 115.395 25.7568 114.074C25.7568 112.688 25.9753 111.667 26.4121 111.012C26.8525 110.353 27.5221 110.024 28.4209 110.024C29.2982 110.024 29.9624 110.368 30.4136 111.055C30.8647 111.743 31.0903 112.749 31.0903 114.074ZM27.0352 114.074C27.0352 115.144 27.1444 115.909 27.3628 116.367C27.5848 116.826 27.9375 117.055 28.4209 117.055C28.9043 117.055 29.257 116.822 29.479 116.356C29.7046 115.891 29.8174 115.13 29.8174 114.074C29.8174 113.021 29.7046 112.26 29.479 111.791C29.257 111.318 28.9043 111.082 28.4209 111.082C27.9375 111.082 27.5848 111.313 27.3628 111.775C27.1444 112.237 27.0352 113.003 27.0352 114.074ZM37.3745 114.074C37.3745 115.438 37.1543 116.451 36.7139 117.114C36.277 117.776 35.6074 118.107 34.7051 118.107C33.8314 118.107 33.1689 117.765 32.7178 117.082C32.2666 116.398 32.041 115.395 32.041 114.074C32.041 112.688 32.2594 111.667 32.6963 111.012C33.1367 110.353 33.8063 110.024 34.7051 110.024C35.5824 110.024 36.2466 110.368 36.6978 111.055C37.1489 111.743 37.3745 112.749 37.3745 114.074ZM33.3193 114.074C33.3193 115.144 33.4285 115.909 33.647 116.367C33.869 116.826 34.2217 117.055 34.7051 117.055C35.1885 117.055 35.5412 116.822 35.7632 116.356C35.9888 115.891 36.1016 115.13 36.1016 114.074C36.1016 113.021 35.9888 112.26 35.7632 111.791C35.5412 111.318 35.1885 111.082 34.7051 111.082C34.2217 111.082 33.869 111.313 33.647 111.775C33.4285 112.237 33.3193 113.003 33.3193 114.074ZM24.7954 153.499C24.7954 155.046 24.4839 156.201 23.8608 156.963C23.2378 157.726 22.2996 158.107 21.0464 158.107C20.5701 158.107 20.2282 158.079 20.0205 158.021V156.963C20.3392 157.053 20.6597 157.098 20.9819 157.098C21.8341 157.098 22.4697 156.868 22.8887 156.41C23.3076 155.952 23.5368 155.232 23.5762 154.251H23.5117C23.3005 154.573 23.0444 154.806 22.7437 154.949C22.4465 155.092 22.0973 155.164 21.6963 155.164C21.0016 155.164 20.4556 154.947 20.0581 154.514C19.6606 154.081 19.4619 153.486 19.4619 152.731C19.4619 151.911 19.6911 151.259 20.1494 150.776C20.6113 150.289 21.2397 150.045 22.0347 150.045C22.5933 150.045 23.0802 150.181 23.4956 150.454C23.911 150.726 24.2314 151.121 24.457 151.641C24.6826 152.156 24.7954 152.776 24.7954 153.499ZM22.0562 151.093C21.6193 151.093 21.2845 151.236 21.0518 151.522C20.819 151.805 20.7026 152.205 20.7026 152.72C20.7026 153.168 20.8101 153.521 21.0249 153.778C21.2433 154.033 21.5728 154.16 22.0132 154.16C22.4393 154.16 22.7974 154.033 23.0874 153.778C23.3774 153.524 23.5225 153.227 23.5225 152.887C23.5225 152.568 23.4598 152.271 23.3345 151.995C23.2127 151.716 23.0409 151.496 22.8188 151.334C22.5968 151.173 22.3426 151.093 22.0562 151.093ZM31.0903 154.074C31.0903 155.438 30.8701 156.451 30.4297 157.114C29.9928 157.776 29.3232 158.107 28.4209 158.107C27.5472 158.107 26.8848 157.765 26.4336 157.082C25.9824 156.398 25.7568 155.395 25.7568 154.074C25.7568 152.688 25.9753 151.667 26.4121 151.012C26.8525 150.353 27.5221 150.024 28.4209 150.024C29.2982 150.024 29.9624 150.368 30.4136 151.055C30.8647 151.743 31.0903 152.749 31.0903 154.074ZM27.0352 154.074C27.0352 155.144 27.1444 155.909 27.3628 156.367C27.5848 156.826 27.9375 157.055 28.4209 157.055C28.9043 157.055 29.257 156.822 29.479 156.356C29.7046 155.891 29.8174 155.13 29.8174 154.074C29.8174 153.021 29.7046 152.26 29.479 151.791C29.257 151.318 28.9043 151.082 28.4209 151.082C27.9375 151.082 27.5848 151.313 27.3628 151.775C27.1444 152.237 27.0352 153.003 27.0352 154.074ZM22.1367 190.045C22.8815 190.045 23.4705 190.217 23.9038 190.561C24.3371 190.901 24.5537 191.358 24.5537 191.931C24.5537 192.736 24.0703 193.377 23.1035 193.854C23.7194 194.161 24.1562 194.486 24.4141 194.826C24.6755 195.166 24.8062 195.545 24.8062 195.964C24.8062 196.612 24.568 197.132 24.0918 197.522C23.6156 197.912 22.971 198.107 22.1582 198.107C21.306 198.107 20.6453 197.925 20.1763 197.56C19.7072 197.194 19.4727 196.677 19.4727 196.007C19.4727 195.57 19.5944 195.178 19.8379 194.831C20.085 194.48 20.4878 194.169 21.0464 193.896C20.5666 193.61 20.2246 193.307 20.0205 192.989C19.8164 192.67 19.7144 192.312 19.7144 191.915C19.7144 191.345 19.9382 190.892 20.3857 190.556C20.8333 190.215 21.417 190.045 22.1367 190.045ZM20.6812 195.964C20.6812 196.337 20.8118 196.627 21.0732 196.834C21.3346 197.039 21.6891 197.141 22.1367 197.141C22.5986 197.141 22.9567 197.035 23.2109 196.824C23.4688 196.609 23.5977 196.319 23.5977 195.954C23.5977 195.664 23.4795 195.399 23.2432 195.159C23.0068 194.919 22.6488 194.697 22.1689 194.493L22.0132 194.423C21.5405 194.631 21.2004 194.86 20.9927 195.11C20.785 195.357 20.6812 195.642 20.6812 195.964ZM22.126 191.018C21.7679 191.018 21.4797 191.107 21.2612 191.286C21.0428 191.462 20.9336 191.701 20.9336 192.006C20.9336 192.192 20.973 192.359 21.0518 192.505C21.1305 192.652 21.2451 192.786 21.3955 192.908C21.5459 193.026 21.8001 193.17 22.1582 193.338C22.5879 193.148 22.8905 192.949 23.0659 192.742C23.245 192.53 23.3345 192.285 23.3345 192.006C23.3345 191.701 23.2235 191.462 23.0015 191.286C22.783 191.107 22.4912 191.018 22.126 191.018ZM31.0903 194.074C31.0903 195.438 30.8701 196.451 30.4297 197.114C29.9928 197.776 29.3232 198.107 28.4209 198.107C27.5472 198.107 26.8848 197.765 26.4336 197.082C25.9824 196.398 25.7568 195.395 25.7568 194.074C25.7568 192.688 25.9753 191.667 26.4121 191.012C26.8525 190.353 27.5221 190.024 28.4209 190.024C29.2982 190.024 29.9624 190.368 30.4136 191.055C30.8647 191.743 31.0903 192.749 31.0903 194.074ZM27.0352 194.074C27.0352 195.144 27.1444 195.909 27.3628 196.367C27.5848 196.826 27.9375 197.055 28.4209 197.055C28.9043 197.055 29.257 196.822 29.479 196.356C29.7046 195.891 29.8174 195.13 29.8174 194.074C29.8174 193.021 29.7046 192.26 29.479 191.791C29.257 191.318 28.9043 191.082 28.4209 191.082C27.9375 191.082 27.5848 191.313 27.3628 191.775C27.1444 192.237 27.0352 193.003 27.0352 194.074ZM20.375 238L23.4795 231.27H19.3975V230.158H24.8276V231.039L21.7393 238H20.375ZM31.0903 234.074C31.0903 235.438 30.8701 236.451 30.4297 237.114C29.9928 237.776 29.3232 238.107 28.4209 238.107C27.5472 238.107 26.8848 237.765 26.4336 237.082C25.9824 236.398 25.7568 235.395 25.7568 234.074C25.7568 232.688 25.9753 231.667 26.4121 231.012C26.8525 230.353 27.5221 230.024 28.4209 230.024C29.2982 230.024 29.9624 230.368 30.4136 231.055C30.8647 231.743 31.0903 232.749 31.0903 234.074ZM27.0352 234.074C27.0352 235.144 27.1444 235.909 27.3628 236.367C27.5848 236.826 27.9375 237.055 28.4209 237.055C28.9043 237.055 29.257 236.822 29.479 236.356C29.7046 235.891 29.8174 235.13 29.8174 234.074C29.8174 233.021 29.7046 232.26 29.479 231.791C29.257 231.318 28.9043 231.082 28.4209 231.082C27.9375 231.082 27.5848 231.313 27.3628 231.775C27.1444 232.237 27.0352 233.003 27.0352 234.074ZM19.5049 274.654C19.5049 271.582 20.7563 270.045 23.2593 270.045C23.6532 270.045 23.9862 270.076 24.2583 270.137V271.189C23.9862 271.111 23.6711 271.071 23.313 271.071C22.4715 271.071 21.8395 271.297 21.417 271.748C20.9945 272.199 20.7653 272.923 20.7295 273.918H20.7939C20.9622 273.628 21.1986 273.404 21.5029 273.247C21.8073 273.085 22.1654 273.005 22.5771 273.005C23.2897 273.005 23.8447 273.223 24.2422 273.66C24.6396 274.097 24.8384 274.69 24.8384 275.438C24.8384 276.262 24.6074 276.913 24.1455 277.393C23.6872 277.869 23.0605 278.107 22.2656 278.107C21.7035 278.107 21.2147 277.973 20.7993 277.705C20.384 277.432 20.0635 277.039 19.8379 276.523C19.6159 276.004 19.5049 275.381 19.5049 274.654ZM22.2441 277.065C22.6774 277.065 23.0104 276.926 23.2432 276.646C23.4795 276.367 23.5977 275.968 23.5977 275.449C23.5977 274.998 23.4867 274.643 23.2646 274.385C23.0462 274.127 22.7168 273.999 22.2764 273.999C22.0042 273.999 21.7536 274.058 21.5244 274.176C21.2952 274.29 21.1144 274.45 20.9819 274.654C20.8494 274.854 20.7832 275.06 20.7832 275.271C20.7832 275.776 20.9193 276.202 21.1914 276.55C21.4671 276.894 21.818 277.065 22.2441 277.065ZM31.0903 274.074C31.0903 275.438 30.8701 276.451 30.4297 277.114C29.9928 277.776 29.3232 278.107 28.4209 278.107C27.5472 278.107 26.8848 277.765 26.4336 277.082C25.9824 276.398 25.7568 275.395 25.7568 274.074C25.7568 272.688 25.9753 271.667 26.4121 271.012C26.8525 270.353 27.5221 270.024 28.4209 270.024C29.2982 270.024 29.9624 270.368 30.4136 271.055C30.8647 271.743 31.0903 272.749 31.0903 274.074ZM27.0352 274.074C27.0352 275.144 27.1444 275.909 27.3628 276.367C27.5848 276.826 27.9375 277.055 28.4209 277.055C28.9043 277.055 29.257 276.822 29.479 276.356C29.7046 275.891 29.8174 275.13 29.8174 274.074C29.8174 273.021 29.7046 272.26 29.479 271.791C29.257 271.318 28.9043 271.082 28.4209 271.082C27.9375 271.082 27.5848 271.313 27.3628 271.775C27.1444 272.237 27.0352 273.003 27.0352 274.074ZM22.1475 313.096C22.9388 313.096 23.5654 313.306 24.0273 313.725C24.4893 314.144 24.7202 314.715 24.7202 315.438C24.7202 316.276 24.457 316.931 23.9307 317.404C23.4079 317.873 22.6631 318.107 21.6963 318.107C20.819 318.107 20.1297 317.966 19.6284 317.683V316.539C19.9185 316.704 20.2515 316.831 20.6274 316.92C21.0034 317.01 21.3525 317.055 21.6748 317.055C22.2441 317.055 22.6774 316.928 22.9746 316.673C23.2718 316.419 23.4204 316.047 23.4204 315.556C23.4204 314.618 22.8224 314.149 21.6265 314.149C21.4582 314.149 21.2505 314.167 21.0034 314.203C20.7563 314.235 20.5397 314.272 20.3535 314.315L19.7896 313.982L20.0903 310.147H24.1724V311.27H21.2021L21.0249 313.214C21.1502 313.193 21.3024 313.168 21.4814 313.139C21.6641 313.111 21.8861 313.096 22.1475 313.096ZM31.0903 314.074C31.0903 315.438 30.8701 316.451 30.4297 317.114C29.9928 317.776 29.3232 318.107 28.4209 318.107C27.5472 318.107 26.8848 317.765 26.4336 317.082C25.9824 316.398 25.7568 315.395 25.7568 314.074C25.7568 312.688 25.9753 311.667 26.4121 311.012C26.8525 310.353 27.5221 310.024 28.4209 310.024C29.2982 310.024 29.9624 310.368 30.4136 311.055C30.8647 311.743 31.0903 312.749 31.0903 314.074ZM27.0352 314.074C27.0352 315.144 27.1444 315.909 27.3628 316.367C27.5848 316.826 27.9375 317.055 28.4209 317.055C28.9043 317.055 29.257 316.822 29.479 316.356C29.7046 315.891 29.8174 315.13 29.8174 314.074C29.8174 313.021 29.7046 312.26 29.479 311.791C29.257 311.318 28.9043 311.082 28.4209 311.082C27.9375 311.082 27.5848 311.313 27.3628 311.775C27.1444 312.237 27.0352 313.003 27.0352 314.074ZM25.0854 356.287H24.0273V358H22.7974V356.287H19.2095V355.314L22.7974 350.126H24.0273V355.239H25.0854V356.287ZM22.7974 355.239V353.268C22.7974 352.566 22.8153 351.992 22.8511 351.544H22.8081C22.7078 351.78 22.5503 352.067 22.3354 352.403L20.3857 355.239H22.7974ZM31.0903 354.074C31.0903 355.438 30.8701 356.451 30.4297 357.114C29.9928 357.776 29.3232 358.107 28.4209 358.107C27.5472 358.107 26.8848 357.765 26.4336 357.082C25.9824 356.398 25.7568 355.395 25.7568 354.074C25.7568 352.688 25.9753 351.667 26.4121 351.012C26.8525 350.353 27.5221 350.024 28.4209 350.024C29.2982 350.024 29.9624 350.368 30.4136 351.055C30.8647 351.743 31.0903 352.749 31.0903 354.074ZM27.0352 354.074C27.0352 355.144 27.1444 355.909 27.3628 356.367C27.5848 356.826 27.9375 357.055 28.4209 357.055C28.9043 357.055 29.257 356.822 29.479 356.356C29.7046 355.891 29.8174 355.13 29.8174 354.074C29.8174 353.021 29.7046 352.26 29.479 351.791C29.257 351.318 28.9043 351.082 28.4209 351.082C27.9375 351.082 27.5848 351.313 27.3628 351.775C27.1444 352.237 27.0352 353.003 27.0352 354.074ZM24.5107 391.952C24.5107 392.45 24.3657 392.865 24.0757 393.198C23.7856 393.528 23.3774 393.75 22.8511 393.864V393.907C23.4813 393.986 23.9539 394.183 24.269 394.498C24.5841 394.81 24.7417 395.225 24.7417 395.744C24.7417 396.5 24.4749 397.083 23.9414 397.495C23.4079 397.903 22.6488 398.107 21.6641 398.107C20.7939 398.107 20.0599 397.966 19.4619 397.683V396.561C19.7949 396.725 20.1476 396.852 20.52 396.942C20.8924 397.031 21.2505 397.076 21.5942 397.076C22.203 397.076 22.6577 396.963 22.9585 396.738C23.2593 396.512 23.4097 396.163 23.4097 395.69C23.4097 395.271 23.2432 394.964 22.9102 394.767C22.5771 394.57 22.0544 394.471 21.3418 394.471H20.6597V393.445H21.3525C22.6058 393.445 23.2324 393.012 23.2324 392.146C23.2324 391.809 23.1232 391.549 22.9048 391.367C22.6864 391.184 22.3641 391.093 21.938 391.093C21.6408 391.093 21.3543 391.136 21.0786 391.222C20.8029 391.304 20.4771 391.467 20.1011 391.71L19.4834 390.83C20.2031 390.3 21.0392 390.035 21.9917 390.035C22.783 390.035 23.4007 390.205 23.8447 390.545C24.2887 390.885 24.5107 391.354 24.5107 391.952ZM31.0903 394.074C31.0903 395.438 30.8701 396.451 30.4297 397.114C29.9928 397.776 29.3232 398.107 28.4209 398.107C27.5472 398.107 26.8848 397.765 26.4336 397.082C25.9824 396.398 25.7568 395.395 25.7568 394.074C25.7568 392.688 25.9753 391.667 26.4121 391.012C26.8525 390.353 27.5221 390.024 28.4209 390.024C29.2982 390.024 29.9624 390.368 30.4136 391.055C30.8647 391.743 31.0903 392.749 31.0903 394.074ZM27.0352 394.074C27.0352 395.144 27.1444 395.909 27.3628 396.367C27.5848 396.826 27.9375 397.055 28.4209 397.055C28.9043 397.055 29.257 396.822 29.479 396.356C29.7046 395.891 29.8174 395.13 29.8174 394.074C29.8174 393.021 29.7046 392.26 29.479 391.791C29.257 391.318 28.9043 391.082 28.4209 391.082C27.9375 391.082 27.5848 391.313 27.3628 391.775C27.1444 392.237 27.0352 393.003 27.0352 394.074ZM24.8062 438H19.4834V437.044L21.5083 435.008C22.1063 434.396 22.502 433.963 22.6953 433.708C22.8923 433.451 23.0355 433.209 23.125 432.983C23.2145 432.758 23.2593 432.516 23.2593 432.258C23.2593 431.904 23.1519 431.625 22.937 431.42C22.7257 431.216 22.4321 431.114 22.0562 431.114C21.7554 431.114 21.4635 431.17 21.1807 431.281C20.9014 431.392 20.5773 431.592 20.2085 431.882L19.5264 431.05C19.9632 430.681 20.3875 430.42 20.7993 430.266C21.2111 430.112 21.6497 430.035 22.1152 430.035C22.8457 430.035 23.4312 430.226 23.8716 430.609C24.312 430.989 24.5322 431.501 24.5322 432.146C24.5322 432.5 24.4678 432.837 24.3389 433.155C24.2135 433.474 24.0184 433.803 23.7534 434.144C23.492 434.48 23.0552 434.937 22.4429 435.513L21.0786 436.834V436.888H24.8062V438ZM31.0903 434.074C31.0903 435.438 30.8701 436.451 30.4297 437.114C29.9928 437.776 29.3232 438.107 28.4209 438.107C27.5472 438.107 26.8848 437.765 26.4336 437.082C25.9824 436.398 25.7568 435.395 25.7568 434.074C25.7568 432.688 25.9753 431.667 26.4121 431.012C26.8525 430.353 27.5221 430.024 28.4209 430.024C29.2982 430.024 29.9624 430.368 30.4136 431.055C30.8647 431.743 31.0903 432.749 31.0903 434.074ZM27.0352 434.074C27.0352 435.144 27.1444 435.909 27.3628 436.367C27.5848 436.826 27.9375 437.055 28.4209 437.055C28.9043 437.055 29.257 436.822 29.479 436.356C29.7046 435.891 29.8174 435.13 29.8174 434.074C29.8174 433.021 29.7046 432.26 29.479 431.791C29.257 431.318 28.9043 431.082 28.4209 431.082C27.9375 431.082 27.5848 431.313 27.3628 431.775C27.1444 432.237 27.0352 433.003 27.0352 434.074ZM23.1895 478H21.9272V472.93C21.9272 472.325 21.9416 471.845 21.9702 471.49C21.8879 471.576 21.7858 471.671 21.6641 471.775C21.5459 471.879 21.1449 472.208 20.4609 472.763L19.8271 471.963L22.1367 470.147H23.1895V478ZM31.0903 474.074C31.0903 475.438 30.8701 476.451 30.4297 477.114C29.9928 477.776 29.3232 478.107 28.4209 478.107C27.5472 478.107 26.8848 477.765 26.4336 477.082C25.9824 476.398 25.7568 475.395 25.7568 474.074C25.7568 472.688 25.9753 471.667 26.4121 471.012C26.8525 470.353 27.5221 470.024 28.4209 470.024C29.2982 470.024 29.9624 470.368 30.4136 471.055C30.8647 471.743 31.0903 472.749 31.0903 474.074ZM27.0352 474.074C27.0352 475.144 27.1444 475.909 27.3628 476.367C27.5848 476.826 27.9375 477.055 28.4209 477.055C28.9043 477.055 29.257 476.822 29.479 476.356C29.7046 475.891 29.8174 475.13 29.8174 474.074C29.8174 473.021 29.7046 472.26 29.479 471.791C29.257 471.318 28.9043 471.082 28.4209 471.082C27.9375 471.082 27.5848 471.313 27.3628 471.775C27.1444 472.237 27.0352 473.003 27.0352 474.074ZM24.8062 514.074C24.8062 515.438 24.5859 516.451 24.1455 517.114C23.7087 517.776 23.0391 518.107 22.1367 518.107C21.263 518.107 20.6006 517.765 20.1494 517.082C19.6982 516.398 19.4727 515.395 19.4727 514.074C19.4727 512.688 19.6911 511.667 20.1279 511.012C20.5684 510.353 21.238 510.024 22.1367 510.024C23.014 510.024 23.6782 510.368 24.1294 511.055C24.5806 511.743 24.8062 512.749 24.8062 514.074ZM20.751 514.074C20.751 515.144 20.8602 515.909 21.0786 516.367C21.3006 516.826 21.6533 517.055 22.1367 517.055C22.6201 517.055 22.9728 516.822 23.1948 516.356C23.4204 515.891 23.5332 515.13 23.5332 514.074C23.5332 513.021 23.4204 512.26 23.1948 511.791C22.9728 511.318 22.6201 511.082 22.1367 511.082C21.6533 511.082 21.3006 511.313 21.0786 511.775C20.8602 512.237 20.751 513.003 20.751 514.074Z" fill="#CBCFD3"/>
<path d="M45 518C53.1667 506.656 72.7358 482.667 85.6792 477.462C101.858 470.956 106.943 485.47 117.113 458.945C127.283 432.42 124.047 419.408 143.462 405.896C162.877 392.383 178.594 414.403 186.453 369.362C194.311 324.32 222.972 311.808 234.066 320.816C245.16 329.825 251.632 327.322 262.726 293.291C273.821 259.259 275.67 251.251 290 254.755" stroke="#219653"/>
<path d="M45 518C53.1538 506.672 75.4615 494.712 88.3846 489.514C104.538 483.018 117 504.007 127.154 477.52C137.308 451.034 127.154 385.567 146.538 372.074C165.923 358.58 189.462 478.52 197.308 433.543C205.154 388.565 222.692 312.104 233.769 321.099C244.846 330.095 245.308 267.126 256.385 233.143C267.462 199.161 288.692 151.685 303 155.183" stroke="#EB5757"/>
<path d="M45 518C53.1492 506.667 57.4544 471.7 70.3701 466.5C86.5146 460 91.5886 461 101.737 434.5C111.885 408 117.881 348 137.255 334.5C156.628 321 177.386 267 185.227 222C193.069 177 222.59 167 233.661 176C244.731 185 262.747 194.211 267.334 158.5C282.556 40 296.855 106.5 313 76" stroke="#9B51E0"/>
<path opacity="0.64" d="M28.1094 90L26.9541 87.0483H23.2344L22.0918 90H21L24.6689 80.6816H25.5767L29.2266 90H28.1094ZM26.6177 86.0771L25.5386 83.2017C25.3989 82.8377 25.255 82.3913 25.1069 81.8623C25.0138 82.2686 24.8805 82.715 24.707 83.2017L23.6152 86.0771H26.6177ZM35.1045 90V85.4995C35.1045 84.9325 34.9754 84.5093 34.7173 84.23C34.4591 83.9507 34.055 83.811 33.5049 83.811C32.777 83.811 32.2438 84.0078 31.9053 84.4014C31.5667 84.7949 31.3975 85.4445 31.3975 86.3501V90H30.3438V83.043H31.2007L31.3721 83.9951H31.4229C31.6387 83.6523 31.9412 83.3879 32.3306 83.2017C32.7199 83.0112 33.1536 82.916 33.6318 82.916C34.4697 82.916 35.1003 83.1191 35.5234 83.5254C35.9466 83.9274 36.1582 84.5728 36.1582 85.4614V90H35.1045ZM44.0229 83.043V83.7095L42.7344 83.8618C42.8529 84.0099 42.9587 84.2046 43.0518 84.4458C43.1449 84.6828 43.1914 84.9515 43.1914 85.252C43.1914 85.9333 42.9587 86.4771 42.4932 86.8833C42.0277 87.2896 41.3887 87.4927 40.5762 87.4927C40.3688 87.4927 40.1742 87.4757 39.9922 87.4419C39.5436 87.6789 39.3193 87.9772 39.3193 88.3369C39.3193 88.5273 39.3976 88.6691 39.5542 88.7622C39.7108 88.8511 39.9795 88.8955 40.3604 88.8955H41.5918C42.3451 88.8955 42.9227 89.0542 43.3247 89.3716C43.731 89.689 43.9341 90.1502 43.9341 90.7554C43.9341 91.5256 43.6252 92.1117 43.0073 92.5137C42.3895 92.9199 41.4881 93.123 40.3032 93.123C39.3934 93.123 38.6909 92.9538 38.1958 92.6152C37.7049 92.2767 37.4595 91.7985 37.4595 91.1807C37.4595 90.7575 37.5949 90.3914 37.8657 90.0825C38.1366 89.7736 38.5174 89.5641 39.0083 89.4541C38.8306 89.3737 38.6803 89.2489 38.5576 89.0796C38.4391 88.9103 38.3799 88.7135 38.3799 88.4893C38.3799 88.2354 38.4476 88.0132 38.583 87.8228C38.7184 87.6323 38.9321 87.4482 39.2241 87.2705C38.8644 87.1224 38.5703 86.8706 38.3418 86.5151C38.1175 86.1597 38.0054 85.7534 38.0054 85.2964C38.0054 84.5347 38.2339 83.9486 38.6909 83.5381C39.1479 83.1234 39.7954 82.916 40.6333 82.916C40.9972 82.916 41.3252 82.9583 41.6172 83.043H44.0229ZM38.4751 91.168C38.4751 91.5446 38.6338 91.8302 38.9512 92.0249C39.2686 92.2196 39.7235 92.3169 40.3159 92.3169C41.2004 92.3169 41.8542 92.1836 42.2773 91.917C42.7048 91.6546 42.9185 91.297 42.9185 90.8442C42.9185 90.4676 42.8021 90.2052 42.5693 90.0571C42.3366 89.9132 41.8986 89.8413 41.2554 89.8413H39.9922C39.514 89.8413 39.1416 89.9556 38.875 90.1841C38.6084 90.4126 38.4751 90.7406 38.4751 91.168ZM39.0464 85.271C39.0464 85.7576 39.1839 86.1258 39.459 86.3755C39.734 86.6252 40.117 86.75 40.6079 86.75C41.6362 86.75 42.1504 86.2507 42.1504 85.252C42.1504 84.2067 41.6299 83.6841 40.5889 83.6841C40.0938 83.6841 39.7129 83.8174 39.4463 84.084C39.1797 84.3506 39.0464 84.7463 39.0464 85.271ZM46.5049 90H45.4512V80.123H46.5049V90ZM51.6782 90.127C50.6499 90.127 49.8374 89.8138 49.2407 89.1875C48.6483 88.5612 48.3521 87.6916 48.3521 86.5786C48.3521 85.4572 48.6271 84.5664 49.1772 83.9062C49.7316 83.2461 50.4743 82.916 51.4053 82.916C52.277 82.916 52.9668 83.2038 53.4746 83.7793C53.9824 84.3506 54.2363 85.106 54.2363 86.0454V86.7119H49.4438C49.465 87.5286 49.6702 88.1486 50.0596 88.5718C50.4531 88.995 51.0054 89.2065 51.7163 89.2065C52.4653 89.2065 53.2059 89.05 53.938 88.7368V89.6763C53.5656 89.8371 53.2122 89.9513 52.8779 90.019C52.5479 90.091 52.1479 90.127 51.6782 90.127ZM51.3926 83.7983C50.834 83.7983 50.3875 83.9803 50.0532 84.3442C49.7231 84.7082 49.5285 85.2118 49.4692 85.855H53.1064C53.1064 85.1906 52.9583 84.6828 52.6621 84.3315C52.3659 83.9761 51.9427 83.7983 51.3926 83.7983Z" fill="#454B66"/>
<path opacity="0.64" d="M121.909 563H120.677L115.605 555.211H115.555C115.622 556.125 115.656 556.963 115.656 557.725V563H114.66V553.72H115.878L120.938 561.477H120.988C120.98 561.362 120.961 560.996 120.931 560.378C120.902 559.756 120.891 559.312 120.899 559.045V553.72H121.909V563ZM125.292 556.043V560.556C125.292 561.123 125.421 561.546 125.679 561.826C125.937 562.105 126.341 562.245 126.892 562.245C127.619 562.245 128.151 562.046 128.485 561.648C128.823 561.25 128.993 560.601 128.993 559.699V556.043H130.046V563H129.177L129.024 562.067H128.967C128.751 562.41 128.451 562.672 128.066 562.854C127.685 563.036 127.249 563.127 126.758 563.127C125.912 563.127 125.277 562.926 124.854 562.524C124.435 562.122 124.226 561.479 124.226 560.594V556.043H125.292ZM141.155 563V558.474C141.155 557.92 141.036 557.505 140.799 557.23C140.562 556.951 140.194 556.811 139.695 556.811C139.039 556.811 138.554 556.999 138.241 557.376C137.928 557.753 137.771 558.332 137.771 559.115V563H136.718V558.474C136.718 557.92 136.599 557.505 136.362 557.23C136.125 556.951 135.755 556.811 135.251 556.811C134.591 556.811 134.107 557.01 133.798 557.408C133.493 557.801 133.341 558.449 133.341 559.35V563H132.287V556.043H133.144L133.315 556.995H133.366C133.565 556.657 133.844 556.392 134.204 556.202C134.568 556.011 134.974 555.916 135.423 555.916C136.51 555.916 137.221 556.31 137.556 557.097H137.606C137.814 556.733 138.114 556.445 138.508 556.233C138.901 556.022 139.35 555.916 139.854 555.916C140.641 555.916 141.229 556.119 141.618 556.525C142.012 556.927 142.208 557.573 142.208 558.461V563H141.155ZM147.623 555.929C148.537 555.929 149.246 556.242 149.75 556.868C150.257 557.49 150.511 558.373 150.511 559.515C150.511 560.658 150.255 561.546 149.743 562.181C149.235 562.812 148.529 563.127 147.623 563.127C147.17 563.127 146.756 563.044 146.379 562.879C146.007 562.71 145.693 562.452 145.439 562.105H145.363L145.141 563H144.386V553.123H145.439V555.522C145.439 556.06 145.423 556.542 145.389 556.97H145.439C145.93 556.276 146.658 555.929 147.623 555.929ZM147.471 556.811C146.751 556.811 146.233 557.018 145.916 557.433C145.598 557.844 145.439 558.538 145.439 559.515C145.439 560.493 145.602 561.193 145.928 561.616C146.254 562.035 146.777 562.245 147.496 562.245C148.144 562.245 148.626 562.01 148.943 561.54C149.261 561.066 149.419 560.387 149.419 559.502C149.419 558.597 149.261 557.922 148.943 557.478C148.626 557.033 148.135 556.811 147.471 556.811ZM155.297 563.127C154.269 563.127 153.457 562.814 152.86 562.188C152.267 561.561 151.971 560.692 151.971 559.579C151.971 558.457 152.246 557.566 152.796 556.906C153.351 556.246 154.093 555.916 155.024 555.916C155.896 555.916 156.586 556.204 157.094 556.779C157.602 557.351 157.855 558.106 157.855 559.045V559.712H153.063C153.084 560.529 153.289 561.149 153.679 561.572C154.072 561.995 154.625 562.207 155.335 562.207C156.084 562.207 156.825 562.05 157.557 561.737V562.676C157.185 562.837 156.831 562.951 156.497 563.019C156.167 563.091 155.767 563.127 155.297 563.127ZM155.012 556.798C154.453 556.798 154.007 556.98 153.672 557.344C153.342 557.708 153.148 558.212 153.088 558.855H156.726C156.726 558.191 156.577 557.683 156.281 557.332C155.985 556.976 155.562 556.798 155.012 556.798ZM162.832 555.916C163.141 555.916 163.418 555.941 163.664 555.992L163.518 556.97C163.23 556.906 162.976 556.875 162.756 556.875C162.193 556.875 161.711 557.103 161.309 557.56C160.911 558.017 160.712 558.586 160.712 559.268V563H159.658V556.043H160.528L160.648 557.332H160.699C160.957 556.879 161.268 556.53 161.632 556.284C161.996 556.039 162.396 555.916 162.832 555.916ZM176.556 558.347C176.556 559.833 176.179 561 175.426 561.851C174.677 562.702 173.634 563.127 172.296 563.127C170.93 563.127 169.874 562.71 169.129 561.876C168.388 561.039 168.018 559.858 168.018 558.334C168.018 556.824 168.39 555.654 169.135 554.824C169.88 553.991 170.938 553.574 172.309 553.574C173.642 553.574 174.683 553.997 175.432 554.843C176.181 555.69 176.556 556.858 176.556 558.347ZM169.161 558.347C169.161 559.604 169.427 560.558 169.96 561.21C170.498 561.857 171.277 562.181 172.296 562.181C173.325 562.181 174.101 561.857 174.626 561.21C175.151 560.562 175.413 559.608 175.413 558.347C175.413 557.099 175.151 556.153 174.626 555.51C174.105 554.862 173.333 554.539 172.309 554.539C171.281 554.539 170.498 554.864 169.96 555.516C169.427 556.164 169.161 557.107 169.161 558.347ZM181.608 556.862H179.837V563H178.784V556.862H177.54V556.386L178.784 556.005V555.618C178.784 553.908 179.531 553.053 181.024 553.053C181.393 553.053 181.824 553.127 182.319 553.275L182.046 554.12C181.64 553.988 181.293 553.923 181.005 553.923C180.608 553.923 180.313 554.056 180.123 554.323C179.933 554.585 179.837 555.008 179.837 555.592V556.043H181.608V556.862ZM193.821 558.271C193.821 559.803 193.404 560.975 192.571 561.788C191.741 562.596 190.546 563 188.984 563H186.414V553.72H189.257C190.7 553.72 191.822 554.12 192.622 554.919C193.421 555.719 193.821 556.836 193.821 558.271ZM192.679 558.309C192.679 557.099 192.374 556.187 191.765 555.573C191.16 554.96 190.258 554.653 189.061 554.653H187.493V562.067H188.807C190.093 562.067 191.06 561.752 191.708 561.121C192.355 560.486 192.679 559.549 192.679 558.309ZM200.017 563L199.807 562.01H199.756C199.409 562.446 199.062 562.742 198.715 562.898C198.373 563.051 197.943 563.127 197.427 563.127C196.737 563.127 196.195 562.949 195.802 562.594C195.412 562.238 195.218 561.733 195.218 561.077C195.218 559.672 196.341 558.935 198.588 558.868L199.769 558.83V558.398C199.769 557.852 199.651 557.45 199.414 557.192C199.181 556.93 198.806 556.798 198.29 556.798C197.71 556.798 197.054 556.976 196.322 557.332L195.999 556.525C196.341 556.339 196.716 556.193 197.122 556.087C197.533 555.982 197.943 555.929 198.354 555.929C199.183 555.929 199.797 556.113 200.194 556.481C200.596 556.849 200.797 557.439 200.797 558.252V563H200.017ZM197.636 562.257C198.292 562.257 198.806 562.077 199.179 561.718C199.555 561.358 199.744 560.854 199.744 560.207V559.579L198.69 559.623C197.852 559.653 197.247 559.784 196.875 560.017C196.506 560.245 196.322 560.603 196.322 561.089C196.322 561.47 196.437 561.76 196.665 561.959C196.898 562.158 197.222 562.257 197.636 562.257ZM201.87 556.043H203L204.523 560.01C204.858 560.916 205.065 561.57 205.146 561.972H205.196C205.251 561.756 205.366 561.388 205.539 560.867C205.717 560.342 206.292 558.734 207.266 556.043H208.396L205.406 563.965C205.11 564.748 204.763 565.302 204.365 565.628C203.971 565.958 203.487 566.123 202.911 566.123C202.59 566.123 202.272 566.087 201.959 566.015V565.171C202.192 565.222 202.452 565.247 202.74 565.247C203.463 565.247 203.98 564.841 204.289 564.028L204.676 563.038L201.87 556.043ZM214.013 561.102C214.013 561.75 213.772 562.249 213.29 562.6C212.807 562.951 212.13 563.127 211.258 563.127C210.336 563.127 209.616 562.981 209.1 562.689V561.711C209.434 561.881 209.792 562.014 210.173 562.111C210.558 562.209 210.928 562.257 211.284 562.257C211.834 562.257 212.257 562.171 212.553 561.997C212.849 561.819 212.998 561.551 212.998 561.191C212.998 560.92 212.879 560.689 212.642 560.499C212.409 560.304 211.952 560.076 211.271 559.813C210.624 559.572 210.162 559.363 209.887 559.185C209.616 559.003 209.413 558.798 209.278 558.569C209.147 558.341 209.081 558.068 209.081 557.75C209.081 557.183 209.312 556.737 209.773 556.411C210.234 556.081 210.867 555.916 211.671 555.916C212.42 555.916 213.152 556.068 213.867 556.373L213.493 557.23C212.794 556.942 212.162 556.798 211.595 556.798C211.095 556.798 210.719 556.877 210.465 557.033C210.211 557.19 210.084 557.406 210.084 557.681C210.084 557.867 210.131 558.026 210.224 558.157C210.321 558.288 210.475 558.413 210.687 558.531C210.899 558.65 211.305 558.821 211.906 559.045C212.731 559.346 213.287 559.648 213.575 559.953C213.867 560.258 214.013 560.641 214.013 561.102Z" fill="#454B66"/>
</svg>
