<svg width="150" height="150" viewBox="0 0 150 150" fill="none" xmlns="http://www.w3.org/2000/svg">
<path d="M121.014 67.028C129.956 61.1996 135.879 51.1139 135.879 39.6675C135.879 21.6717 121.239 7.03125 103.243 7.03125C91.1968 7.03125 80.6545 13.5921 75 23.3276C69.3455 13.5921 58.8043 7.03125 46.7583 7.03125C28.7624 7.03125 14.1209 21.6717 14.1209 39.6675C14.1209 51.1139 20.0443 61.1996 28.9856 67.028C11.9923 74.0376 0 90.7803 0 110.274V126.748C0 135.661 7.25098 142.91 16.1625 142.91H133.838C142.75 142.91 150 135.661 150 126.749V110.274C150 90.7803 138.008 74.0376 121.014 67.028ZM103.243 15.8203C116.392 15.8203 127.09 26.5182 127.09 39.6675C127.09 52.8179 116.392 63.5159 103.243 63.5159C90.0925 63.5159 79.3945 52.8179 79.3945 39.6675C79.3945 26.5182 90.0925 15.8203 103.243 15.8203ZM74.984 73.0225C71.7934 70.5986 68.2846 68.5764 64.5309 67.028C68.8236 64.23 72.4205 60.45 75 56.0097C77.5784 60.4477 81.1729 64.2254 85.4622 67.0235C81.744 68.5524 78.2215 70.5643 74.984 73.0225ZM22.9099 39.6675C22.9099 26.5182 33.6079 15.8203 46.7583 15.8203C59.9075 15.8203 70.6055 26.5182 70.6055 39.6675C70.6055 52.8179 59.9075 63.5159 46.7583 63.5159C33.6079 63.5159 22.9099 52.8179 22.9099 39.6675ZM72.646 134.121H16.1625C12.0964 134.121 8.78906 130.814 8.78906 126.749V110.274C8.78906 89.3372 25.8224 72.3049 46.7583 72.3049C67.6941 72.3049 84.7275 89.3383 84.7275 110.274V126.749C84.7275 130.814 81.419 134.121 77.354 134.121H72.646ZM141.211 126.749C141.211 130.814 137.904 134.121 133.838 134.121H91.729C92.8688 131.909 93.5165 129.404 93.5165 126.749V110.274C93.5165 98.3059 88.9938 87.3745 81.5723 79.0958C87.9009 74.6922 95.4437 72.3049 103.243 72.3049C124.179 72.3049 141.211 89.3372 141.211 110.274V126.749Z" fill="#D4DDE8"/>
</svg>
