<svg width="18" height="20" viewBox="0 0 18 20" fill="none" xmlns="http://www.w3.org/2000/svg">
<path d="M15.459 8.37235C15.3484 8.41264 15.2437 8.46787 15.1488 8.53761C14.6584 8.89848 13.7441 9.8842 13.7441 9.8842C13.7722 9.8578 13.0857 10.522 12.4563 11.1356C12.2797 11.3078 11.9829 11.1841 11.9808 10.9374V2.98722C11.9808 2.20796 11.3506 1.67039 10.588 1.83061C9.97946 1.95847 9.65475 2.52458 9.65475 3.20146L9.6601 9.20274L8.73251 9.20487V1.08338C8.73251 0.339823 8.13559 -0.148306 7.41644 0.0409029C6.92297 0.170603 6.69196 0.63508 6.69196 1.22071V9.21601L5.76712 9.218L5.76178 2.72172C5.76178 2.07261 5.45569 1.5001 4.80688 1.48087C4.1326 1.46089 3.80789 2.02653 3.80789 2.69639L3.79828 9.22868L2.8942 9.23051V4.94889C2.8942 4.27445 2.58047 3.76496 1.90237 3.76496C1.22778 3.76496 0.914062 4.27445 0.914062 4.94889L0.914825 14.4541C1.25311 19.3408 4.01572 20 6.90359 20C9.29617 20 11.2102 18.8132 12.2698 16.9161C12.4062 16.696 12.7749 16.1162 13.212 15.4294C13.8338 14.4527 14.3981 13.5788 14.7941 12.9596C15.3161 12.1431 15.794 11.5053 16.3851 10.7373C16.5496 10.5237 16.6859 10.3517 16.7509 10.2806C16.9289 10.0862 17.0463 9.84437 17.0814 9.58329V9.53401C17.0814 8.59147 16.3442 8.04887 15.459 8.37235Z" fill="white"/>
</svg>
