<svg width="112" height="28" viewBox="0 0 112 28" fill="none" xmlns="http://www.w3.org/2000/svg">
<path d="M24.2086 26.8535H19.8707L18.6692 24.7321L16.4942 20.9036L12.372 13.6303L10.1908 9.78941L6.61096 3.47461H10.9733L12.372 5.94245L14.5471 9.78941L18.6692 17.069L20.8381 20.9036L24.2086 26.8535Z" fill="#F69323"/>
<path d="M24.7379 27.1627H19.6913L6.08093 3.16541H11.1526L24.7379 27.1627ZM20.05 26.5442H23.6789L10.794 3.78393H7.14061L20.05 26.5442Z" fill="#F69323"/>
<path d="M30.7213 3.47461L24.3931 14.6399C23.8349 15.6248 22.547 15.9025 21.6349 15.2349C20.858 14.6659 20.6301 13.6024 21.1052 12.7634L26.3651 3.47478H30.7213V3.47461Z" fill="#F69323"/>
<path d="M22.7503 15.9087C22.2881 15.9087 21.8326 15.7625 21.4535 15.4847C20.5492 14.8226 20.2846 13.5869 20.8376 12.6106L26.1858 3.16541H31.2514L24.661 14.7928C24.3513 15.3388 23.8231 15.7274 23.2113 15.8595C23.0586 15.8924 22.904 15.9087 22.7503 15.9087ZM26.5444 3.78393L21.3732 12.9163C20.9752 13.619 21.1657 14.5084 21.8167 14.9853C22.1804 15.2513 22.6414 15.3492 23.0821 15.2549C23.5223 15.1598 23.9026 14.8802 24.1255 14.4869L30.1918 3.78393H26.5444Z" fill="#F69323"/>
<path d="M9.744 18.2581L4.87332 26.8536H0.529358L6.45988 16.3834C7.01681 15.4002 8.30208 15.1218 9.21334 15.7873C9.99094 16.3553 10.2195 17.4191 9.744 18.2581Z" fill="#F69323"/>
<path d="M5.0526 27.1627H0L6.19208 16.2308C6.50075 15.6858 7.0278 15.2973 7.63859 15.165C8.24871 15.033 8.88922 15.1686 9.39443 15.5373C10.3001 16.1983 10.5654 17.4339 10.0118 18.4111L5.0526 27.1627ZM1.05902 26.5442H4.69401L9.47619 18.1055C9.87452 17.4021 9.68357 16.5131 9.03206 16.0375C8.66838 15.7726 8.208 15.6751 7.76846 15.7697C7.32893 15.8648 6.94948 16.1445 6.7275 16.5364L1.05902 26.5442Z" fill="#F69323"/>
<path d="M18.5005 7.86332C16.5895 7.86332 15.0347 6.30258 15.0347 4.38437C15.0347 2.46616 16.5895 0.905426 18.5005 0.905426C20.4115 0.905426 21.9664 2.46616 21.9664 4.38437C21.9664 6.30258 20.4115 7.86332 18.5005 7.86332ZM18.5005 2.14231C17.2688 2.14231 16.2669 3.14798 16.2669 4.38437C16.2669 5.62076 17.2688 6.62643 18.5005 6.62643C19.7323 6.62643 20.7342 5.62076 20.7342 4.38437C20.7342 3.14798 19.7323 2.14231 18.5005 2.14231Z" fill="#F69323"/>
<path d="M44.9854 23.2006L37.7109 12.1706V23.2006H36.2486V9.44711H37.6342L44.9083 20.4382V9.44711H46.3706V23.2006H44.9854Z" fill="#0F2644"/>
<path d="M59.6068 20.5437C59.3693 21.1169 59.0355 21.6093 58.6061 22.0214C58.1761 22.4335 57.6694 22.7523 57.0857 22.9776C56.5019 23.2027 55.864 23.3156 55.1713 23.3156C54.4782 23.3156 53.8397 23.2027 53.2563 22.9776C52.6725 22.7523 52.1689 22.4335 51.7454 22.0214C51.3225 21.6093 50.9917 21.1169 50.7547 20.5437C50.5171 19.9706 50.3984 19.3429 50.3984 18.6603V9.44614H51.8612V18.5442C51.8612 19.0724 51.9379 19.5487 52.0922 19.9736C52.2461 20.3987 52.4671 20.7594 52.7557 21.0554C53.0443 21.3517 53.3942 21.5836 53.8045 21.7509C54.215 21.9184 54.6705 22.0019 55.1711 22.0019C55.6712 22.0019 56.1264 21.9184 56.5372 21.7509C56.9476 21.5836 57.2974 21.3517 57.586 21.0554C57.8746 20.7594 58.0986 20.3987 58.2595 19.9736C58.4199 19.5487 58.5 19.0724 58.5 18.5442V9.44614H59.9623V18.6603C59.9626 19.3431 59.8439 19.9708 59.6068 20.5437Z" fill="#0F2644"/>
<path d="M71.8613 23.1997L68.7436 17.0957H65.4526V23.1997H63.9904V9.44629H69.2439C69.8337 9.44629 70.3794 9.53314 70.8796 9.70702C71.3802 9.88089 71.8097 10.1321 72.1689 10.4604C72.5277 10.7887 72.8068 11.1914 73.0058 11.6676C73.2048 12.144 73.3045 12.6787 73.3045 13.2708C73.3045 14.2753 73.0283 15.0963 72.4766 15.7337C71.9248 16.3711 71.2068 16.7801 70.3217 16.9601L73.5736 23.1994H71.8613V23.1997ZM71.8417 13.2903C71.8417 12.4404 71.5882 11.8062 71.0815 11.3877C70.5748 10.9693 69.9174 10.76 69.1089 10.76H65.4526V15.8015H69.1089C69.9173 15.8015 70.5748 15.5958 71.0815 15.1834C71.5882 14.7713 71.8417 14.1402 71.8417 13.2903Z" fill="#0F2644"/>
<path d="M77.0281 23.1997V9.44629H85.5342V10.7598H78.4906V15.6082H84.4948V16.9218H78.4906V21.886H85.5342V23.1997H77.0281Z" fill="#0F2644"/>
<path d="M97.9383 23.1997L96.8414 20.0898H90.8567L89.7597 23.1997H88.2012L93.2428 9.44629H94.4746L99.497 23.1997H97.9383ZM93.8781 11.5517L91.2992 18.8148H96.4179L93.8781 11.5517Z" fill="#0F2644"/>
<path d="M112 19.3943C112 20.0125 111.9 20.5602 111.701 21.0361C111.502 21.5128 111.223 21.9121 110.864 22.2338C110.505 22.5557 110.076 22.7971 109.575 22.9581C109.075 23.1193 108.523 23.1996 107.92 23.1996H102.59V9.44614H107.747C108.337 9.44614 108.882 9.53002 109.383 9.6973C109.883 9.86475 110.309 10.1062 110.663 10.4216C111.015 10.7372 111.291 11.1204 111.49 11.571C111.689 12.0219 111.788 12.5368 111.788 13.1163C111.788 13.8503 111.596 14.4814 111.211 15.0094C110.826 15.5376 110.345 15.9109 109.768 16.1296C110.422 16.3744 110.957 16.7737 111.375 17.3273C111.791 17.8814 112 18.5703 112 19.3943ZM110.326 13.1357C110.326 12.7237 110.255 12.3697 110.114 12.0733C109.972 11.7774 109.783 11.5326 109.546 11.3395C109.309 11.1463 109.027 11.0014 108.699 10.9049C108.372 10.8083 108.016 10.76 107.632 10.76H104.052V15.5312H107.632C108.016 15.5312 108.372 15.4829 108.699 15.3863C109.027 15.2898 109.309 15.1449 109.546 14.9517C109.783 14.7586 109.972 14.5107 110.114 14.2079C110.255 13.9054 110.326 13.5481 110.326 13.1357ZM110.537 19.3557C110.537 18.5831 110.29 17.9714 109.797 17.5206C109.302 17.0698 108.632 16.8446 107.785 16.8446H104.052V21.8859H107.785C108.632 21.8859 109.302 21.6575 109.797 21.2003C110.29 20.7434 110.537 20.1285 110.537 19.3557Z" fill="#0F2644"/>
</svg>
