<svg width="18" height="20" viewBox="0 0 18 20" fill="none" xmlns="http://www.w3.org/2000/svg">
<path d="M2.54095 8.37235C2.65158 8.41264 2.75626 8.46787 2.85117 8.53761C3.34158 8.89848 4.25589 9.8842 4.25589 9.8842C4.22781 9.8578 4.91431 10.522 5.54373 11.1356C5.72028 11.3078 6.01706 11.1841 6.0192 10.9374V2.98722C6.0192 2.20796 6.64938 1.67039 7.41202 1.83061C8.02054 1.95847 8.34525 2.52458 8.34525 3.20146L8.3399 9.20274L9.26749 9.20487V1.08338C9.26749 0.339823 9.86441 -0.148306 10.5836 0.0409029C11.077 0.170603 11.308 0.63508 11.308 1.22071V9.21601L12.2329 9.218L12.2382 2.72172C12.2382 2.07261 12.5443 1.5001 13.1931 1.48087C13.8674 1.46089 14.1921 2.02653 14.1921 2.69639L14.2017 9.22868L15.1058 9.23051V4.94889C15.1058 4.27445 15.4195 3.76496 16.0976 3.76496C16.7722 3.76496 17.0859 4.27445 17.0859 4.94889L17.0852 14.4541C16.7469 19.3408 13.9843 20 11.0964 20C8.70383 20 6.78976 18.8132 5.73019 16.9161C5.59378 16.696 5.22513 16.1162 4.78796 15.4294C4.16617 14.4527 3.6019 13.5788 3.20593 12.9596C2.68393 12.1431 2.20602 11.5053 1.6149 10.7373C1.45041 10.5237 1.31415 10.3517 1.24915 10.2806C1.07108 10.0862 0.953735 9.84437 0.91864 9.58329V9.53401C0.91864 8.59147 1.65579 8.04887 2.54095 8.37235Z" fill="#0F2644"/>
</svg>
