<svg width="46" height="46" viewBox="0 0 46 46" fill="none" xmlns="http://www.w3.org/2000/svg">
<g clip-path="url(#clip0_1010_209)">
<path d="M37.6744 24.7108C37.6744 24.7108 44.3923 24.4201 45.7065 24.2754L45.9997 21.9375C45.9997 21.9375 39.7175 18.2867 38.1101 20.0395C38.1101 20.0395 35.6295 24.5661 37.6744 24.7108Z" fill="white"/>
<path d="M37.9677 17.047C38.2661 19.9662 45.7066 17.4097 45.7066 17.4097L45.5626 14.9277C38.0004 15.0731 37.7818 15.2562 37.9677 17.047Z" fill="white"/>
<path d="M33.5481 15.9486C30.6996 19.089 32.4537 23.4338 32.4537 23.4338C33.8779 26.5729 35.8888 23.8343 35.8888 23.8343C37.3836 21.5357 37.1822 18.1818 36.6191 16.3859C35.7788 13.7231 33.5481 15.9486 33.5481 15.9486Z" fill="white"/>
<path d="M31.1748 26.2458C31.1748 26.2458 31.6133 27.195 27.8144 30.557C27.8144 30.557 25.5526 30.1905 26.1363 32.0888C26.1363 32.0888 27.6704 34.9373 28.7648 33.1132C28.7648 33.1132 29.1288 32.3829 29.1288 31.7996L32.2705 28.6605C32.2705 28.6605 34.6085 28.3666 33.8779 26.8357C33.8779 26.8314 31.76 24.1276 31.1748 26.2458Z" fill="white"/>
<path d="M24.5996 33.9867L22.1899 35.96C22.1899 35.96 20.1484 35.0108 20.6564 37.0549C20.6564 37.0549 21.8242 39.7574 22.7731 38.4426C22.7731 38.4426 23.0663 37.7123 22.993 37.1983L25.2555 35.3742C25.2555 35.3742 27.9587 35.8847 26.3487 33.4761C26.3538 33.4761 24.5996 31.2874 24.5996 33.9867Z" fill="white"/>
<path d="M19.7098 37.4925C19.1634 37.5232 18.4662 38.3623 17.9537 38.8073C16.127 40.4024 17.8051 40.5753 18.1736 40.4136C21.971 38.7333 20.5332 37.448 19.7098 37.4925Z" fill="white"/>
<path d="M22.1895 12.5179C22.1706 13.2587 22.2295 14.2209 24.7461 14.124C26.0761 14.0717 30.0793 15.3167 29.6392 16.2422C29.3357 16.8824 27.283 16.9922 22.9172 14.9987C22.3787 14.7524 21.1737 12.996 20.6546 15.7303C20.5125 16.478 19.7284 17.8444 23.2844 17.267C24.8351 17.0131 28.1862 17.5134 29.3447 18.9453C29.3447 18.9453 28.4689 20.1862 22.48 19.5305C22.48 19.5305 20.231 17.3824 19.4135 19.092C19.0876 19.7767 18.2713 21.7016 20.4372 21.9404C20.9766 22.0006 21.8969 21.7945 22.48 21.2099C22.48 21.2099 30.2203 20.554 29.3447 22.1604C29.3447 22.1604 24.6728 24.3491 21.7495 23.6186C21.7495 23.6186 19.0456 22.2833 19.0456 25.2262C19.0456 25.4461 18.6477 27.8496 22.1141 25.8815C23.531 25.077 26.8613 24.2773 28.9795 24.5692C29.9219 24.6995 31.608 26.1027 31.2413 21.5008C31.2413 21.5008 31.3174 18.0671 31.6798 17.1195C31.6798 17.1195 33.1408 14.1257 30.5869 14.4176C30.5869 14.4176 26.7146 14.1979 24.7431 12.2238C24.7489 12.2246 22.2648 9.52125 22.1895 12.5179Z" fill="white"/>
<path d="M16.3853 9.19402C15.6535 10.5789 17.443 10.3265 17.443 10.3265C18.5394 10.3618 19.5971 11.0205 19.7463 11.3855C19.8247 11.582 20.0021 11.8621 20.073 12.0414C20.8401 13.9775 22.1171 10.6185 22.1171 10.6185C21.8253 9.74157 21.1105 10.3332 20.7661 10.3255C20.4015 10.3162 19.8224 9.76759 19.5253 9.55841C18.1874 8.61852 18.3805 8.49791 18.1017 8.06343C17.3729 6.93328 16.3853 9.19402 16.3853 9.19402Z" fill="#F69323"/>
<path d="M11.7612 7.18441C11.3764 8.30876 12.6861 7.90826 12.6861 7.90826C13.5114 7.80743 14.3846 8.17526 14.5345 8.43195C14.6174 8.57211 14.7864 8.75915 14.8584 8.8862C15.6614 10.2477 16.2277 7.57848 16.2277 7.57848C15.9043 6.95546 15.4376 7.48431 15.179 7.51828C14.9055 7.55504 14.4068 7.21193 14.1561 7.08896C13.0453 6.54313 13.1762 6.4279 12.9124 6.13337C12.2337 5.37299 11.7612 7.18441 11.7612 7.18441Z" fill="#F69323"/>
<path d="M12.333 12.193C11.848 11.6564 11.4821 12.2742 11.2164 12.3632C10.9375 12.4574 10.3341 12.231 10.0434 12.1669C8.74367 11.8761 8.85352 11.7376 8.50848 11.5072C7.61459 10.9128 7.54322 12.7848 7.54322 12.7848C7.40434 13.9681 8.68863 13.2874 8.68863 13.2874C9.53286 13.0086 10.5342 13.1774 10.7554 13.3934L11.2033 13.7651C12.3676 14.9185 12.333 12.193 12.333 12.193Z" fill="#F69323"/>
<path d="M10.3584 18.7868C9.72488 18.161 9.25279 18.8784 8.90538 18.9818C8.54077 19.0932 7.75416 18.8339 7.373 18.7539C5.67917 18.4175 5.82385 18.2511 5.37605 17.9856C4.20849 17.2942 4.11863 19.4739 4.11863 19.4739C3.93805 20.8502 5.60909 20.0617 5.60909 20.0617C6.70871 19.7368 8.01708 19.9318 8.30515 20.1872C8.46037 20.3235 8.74758 20.4936 8.88818 20.6187C10.4068 21.9632 10.3584 18.7868 10.3584 18.7868Z" fill="#F69323"/>
<path d="M4.8265 27.7956C5.02234 29.1695 6.42294 27.9618 6.42294 27.9618C7.39616 27.3557 8.70711 27.1947 9.05151 27.3622C9.23811 27.4493 9.56144 27.5421 9.7302 27.6227C11.5504 28.5095 10.6563 25.4628 10.6563 25.4628C9.87875 25.0316 9.61368 25.8502 9.30819 26.0448C8.98615 26.2484 8.1574 26.2071 7.77194 26.2353C6.04909 26.3621 6.14411 26.1626 5.64149 26.0285C4.33484 25.6712 4.8265 27.7956 4.8265 27.7956Z" fill="#F69323"/>
<path d="M3.89875 26.3543C3.34238 25.6571 2.92553 26.6652 2.6222 26.8595C2.3008 27.0631 1.6909 26.9834 1.30609 27.0115C0.895688 27.0423 0.391774 27.3746 0.575582 27.888C0.881284 28.7526 2.39969 27.8637 2.74452 28.0301C2.93048 28.1185 3.02872 28.3371 3.20544 28.3986C4.48307 28.8743 4.26314 26.8159 3.89875 26.3543Z" fill="#F69323"/>
<path d="M3.42296 18.1766C3.14822 17.6661 2.54391 18.0876 2.20897 18.2211C1.85232 18.3624 1.26907 18.1715 0.885549 18.1334C0.477301 18.0902 -0.0777781 18.3297 0.00907396 18.8626C0.153756 19.766 1.80652 19.1705 2.11459 19.3943C2.28206 19.5173 2.33968 19.7451 2.5007 19.8419C3.67105 20.5395 3.70179 18.6937 3.42296 18.1766Z" fill="#F69323"/>
<path d="M6.85579 11.3122C6.58105 10.8016 5.9748 11.2232 5.63986 11.3567C5.28515 11.4979 4.70062 11.307 4.31709 11.2677C3.90798 11.2259 3.35312 11.4639 3.44212 11.9979C3.5868 12.9013 5.24065 12.3058 5.54764 12.5296C5.71382 12.6526 5.77272 12.8817 5.93374 12.9772C7.10388 13.675 7.13462 11.8292 6.85579 11.3122Z" fill="#F69323"/>
<path d="M9.57568 5.82997C9.22225 5.97121 8.63922 5.78031 8.25548 5.74097C7.84509 5.69776 7.29065 5.93725 7.37901 6.47018C7.52369 7.3746 9.17775 6.77781 9.48474 7.0029C9.65221 7.12608 9.70983 7.35396 9.87085 7.4479C11.0425 8.14573 11.0719 6.3012 10.7931 5.78289C10.5182 5.27468 9.91212 5.69497 9.57568 5.82997Z" fill="#F69323"/>
<path d="M16.8979 21.3544C18.9551 22.7348 18.0212 18.5837 18.0212 18.5837C17.1456 17.9254 16.7999 18.9268 16.4379 19.127C16.0556 19.3415 15.1013 19.1715 14.6561 19.1517C12.6643 19.0679 12.7836 18.8348 12.2103 18.5876C10.7153 17.9512 11.2356 20.735 11.2356 20.735C11.3947 22.5041 12.8064 21.0981 12.8064 21.0981C13.6567 20.606 15.7753 20.657 16.1655 20.9143C16.379 21.0569 16.7075 21.2256 16.8979 21.3544Z" fill="#F69323"/>
<path d="M11.5595 26.9257C11.9495 28.6615 13.1643 27.0795 13.1643 27.0795C13.9394 26.4833 16.0462 26.2535 16.4684 26.459C16.6963 26.5717 17.0452 26.6959 17.2498 26.798C19.4738 27.8983 18.0005 23.9038 18.0005 23.9038C17.0462 23.3676 16.8356 24.4038 16.5062 24.6532C16.1547 24.9118 15.1867 24.8705 14.743 24.9079C12.7565 25.0879 12.8436 24.8359 12.2434 24.6697C10.6751 24.2335 11.5595 26.9257 11.5595 26.9257Z" fill="#F69323"/>
<path d="M19.8195 14.1226C19.2015 13.5626 18.6363 14.1959 18.2487 14.2679C17.4352 14.4276 15.5141 14.1084 15.0356 13.4276C14.6172 12.8318 14.0865 12.5139 13.684 12.7732C12.7473 13.3674 12.8187 14.6437 13.2474 15.1476C13.868 15.8755 14.817 15.001 14.817 15.001C14.817 15.001 17.9135 15.0848 18.176 15.8401C18.4319 16.5704 19.0433 16.6372 19.3451 16.3519C20.0728 15.658 20.3314 14.591 19.8195 14.1226Z" fill="#F69323"/>
</g>
<defs>
<clipPath id="clip0_1010_209">
</clipPath>
</defs>
</svg>
