<svg width="46" height="46" viewBox="0 0 46 46" fill="none" xmlns="http://www.w3.org/2000/svg">
<g clip-path="url(#clip0_1010_649)">
<path d="M37.6744 24.7108C37.6744 24.7108 44.3923 24.4201 45.7065 24.2754L45.9997 21.9375C45.9997 21.9375 39.7175 18.2867 38.1101 20.0395C38.1101 20.0395 35.6295 24.5661 37.6744 24.7108Z" fill="white"/>
<path d="M37.9672 17.047C38.2656 19.9662 45.7061 17.4097 45.7061 17.4097L45.5621 14.9277C37.9999 15.0731 37.7813 15.2562 37.9672 17.047Z" fill="white"/>
<path d="M33.5486 15.9486C30.7001 19.089 32.4542 23.4338 32.4542 23.4338C33.8784 26.5729 35.8893 23.8343 35.8893 23.8343C37.3841 21.5357 37.1827 18.1818 36.6196 16.3859C35.7793 13.7231 33.5486 15.9486 33.5486 15.9486Z" fill="white"/>
<path d="M31.1748 26.2458C31.1748 26.2458 31.6133 27.195 27.8144 30.557C27.8144 30.557 25.5526 30.1905 26.1363 32.0888C26.1363 32.0888 27.6704 34.9373 28.7648 33.1132C28.7648 33.1132 29.1288 32.3829 29.1288 31.7996L32.2705 28.6605C32.2705 28.6605 34.6085 28.3666 33.8779 26.8357C33.8779 26.8314 31.76 24.1276 31.1748 26.2458Z" fill="#F69323"/>
<path d="M24.5996 33.9867L22.1899 35.96C22.1899 35.96 20.1484 35.0108 20.6564 37.0549C20.6564 37.0549 21.8242 39.7574 22.7731 38.4426C22.7731 38.4426 23.0663 37.7123 22.993 37.1983L25.2555 35.3742C25.2555 35.3742 27.9587 35.8847 26.3487 33.4761C26.3538 33.4761 24.5996 31.2874 24.5996 33.9867Z" fill="#F69323"/>
<path d="M19.7094 37.4925C19.1629 37.5232 18.4657 38.3623 17.9532 38.8073C16.1265 40.4024 17.8046 40.5753 18.1731 40.4136C21.9705 38.7333 20.5327 37.448 19.7094 37.4925Z" fill="#F69323"/>
<path d="M22.1895 12.5179C22.1706 13.2587 22.2295 14.2209 24.7461 14.124C26.0761 14.0717 30.0793 15.3167 29.6392 16.2422C29.3357 16.8824 27.283 16.9922 22.9172 14.9987C22.3787 14.7524 21.1737 12.996 20.6546 15.7303C20.5125 16.478 19.7284 17.8444 23.2844 17.267C24.8351 17.0131 28.1862 17.5134 29.3447 18.9453C29.3447 18.9453 28.4689 20.1862 22.48 19.5305C22.48 19.5305 20.231 17.3824 19.4135 19.092C19.0876 19.7767 18.2713 21.7016 20.4372 21.9404C20.9766 22.0006 21.8969 21.7945 22.48 21.2099C22.48 21.2099 30.2203 20.554 29.3447 22.1604C29.3447 22.1604 24.6728 24.3491 21.7495 23.6186C21.7495 23.6186 19.0456 22.2833 19.0456 25.2262C19.0456 25.4461 18.6477 27.8496 22.1141 25.8815C23.531 25.077 26.8613 24.2773 28.9795 24.5692C29.9219 24.6995 31.608 26.1027 31.2413 21.5008C31.2413 21.5008 31.3174 18.0671 31.6798 17.1195C31.6798 17.1195 33.1408 14.1257 30.5869 14.4176C30.5869 14.4176 26.7146 14.1979 24.7431 12.2238C24.7489 12.2246 22.2648 9.52125 22.1895 12.5179Z" fill="white"/>
<path d="M16.3848 9.19402C15.653 10.5789 17.4425 10.3265 17.4425 10.3265C18.5389 10.3618 19.5966 11.0205 19.7458 11.3855C19.8243 11.582 20.0016 11.8621 20.0726 12.0414C20.8396 13.9775 22.1166 10.6185 22.1166 10.6185C21.8249 9.74157 21.1101 10.3332 20.7657 10.3255C20.401 10.3162 19.8219 9.76759 19.5248 9.55841C18.187 8.61852 18.38 8.49791 18.1012 8.06343C17.3724 6.93328 16.3848 9.19402 16.3848 9.19402Z" fill="white"/>
<path d="M11.7612 7.18441C11.3764 8.30876 12.6861 7.90826 12.6861 7.90826C13.5114 7.80743 14.3846 8.17526 14.5345 8.43195C14.6174 8.57211 14.7864 8.75915 14.8584 8.8862C15.6614 10.2477 16.2277 7.57848 16.2277 7.57848C15.9043 6.95546 15.4376 7.48431 15.179 7.51828C14.9055 7.55504 14.4068 7.21193 14.1561 7.08896C13.0453 6.54313 13.1762 6.4279 12.9124 6.13337C12.2337 5.37299 11.7612 7.18441 11.7612 7.18441Z" fill="white"/>
<path d="M12.3335 12.193C11.8485 11.6564 11.4826 12.2742 11.2169 12.3632C10.938 12.4574 10.3346 12.231 10.0439 12.1669C8.74415 11.8761 8.85401 11.7376 8.50897 11.5072C7.61508 10.9128 7.54371 12.7848 7.54371 12.7848C7.40483 13.9681 8.68912 13.2874 8.68912 13.2874C9.53335 13.0086 10.5347 13.1774 10.7559 13.3934L11.2037 13.7651C12.3681 14.9185 12.3335 12.193 12.3335 12.193Z" fill="white"/>
<path d="M10.3579 18.7868C9.7244 18.161 9.2523 18.8784 8.90489 18.9818C8.54028 19.0932 7.75367 18.8339 7.37251 18.7539C5.67868 18.4175 5.82336 18.2511 5.37556 17.9856C4.208 17.2942 4.11814 19.4739 4.11814 19.4739C3.93756 20.8502 5.6086 20.0617 5.6086 20.0617C6.70822 19.7368 8.01659 19.9318 8.30467 20.1872C8.45988 20.3235 8.7471 20.4936 8.88769 20.6187C10.4063 21.9632 10.3579 18.7868 10.3579 18.7868Z" fill="white"/>
<path d="M4.82601 27.7956C5.02185 29.1695 6.42245 27.9618 6.42245 27.9618C7.39567 27.3557 8.70662 27.1947 9.05102 27.3622C9.23762 27.4493 9.56095 27.5421 9.72971 27.6227C11.5499 28.5095 10.6558 25.4628 10.6558 25.4628C9.87826 25.0316 9.61319 25.8502 9.3077 26.0448C8.98566 26.2484 8.15691 26.2071 7.77145 26.2353C6.0486 26.3621 6.14362 26.1626 5.641 26.0285C4.33435 25.6712 4.82601 27.7956 4.82601 27.7956Z" fill="white"/>
<path d="M3.89924 26.3543C3.34287 25.6571 2.92602 26.6652 2.62268 26.8595C2.30129 27.0631 1.69139 26.9834 1.30657 27.0115C0.896176 27.0423 0.392262 27.3746 0.57607 27.888C0.881773 28.7526 2.40018 27.8637 2.74501 28.0301C2.93097 28.1185 3.02921 28.3371 3.20593 28.3986C4.48355 28.8743 4.26363 26.8159 3.89924 26.3543Z" fill="white"/>
<path d="M3.42296 18.1766C3.14822 17.6661 2.54391 18.0876 2.20897 18.2211C1.85232 18.3624 1.26907 18.1715 0.885549 18.1334C0.477301 18.0902 -0.0777781 18.3297 0.00907396 18.8626C0.153756 19.766 1.80652 19.1705 2.11459 19.3943C2.28206 19.5173 2.33968 19.7451 2.5007 19.8419C3.67105 20.5395 3.70179 18.6937 3.42296 18.1766Z" fill="white"/>
<path d="M6.85579 11.3122C6.58105 10.8016 5.9748 11.2232 5.63986 11.3567C5.28515 11.4979 4.70062 11.307 4.31709 11.2677C3.90798 11.2259 3.35312 11.4639 3.44212 11.9979C3.5868 12.9013 5.24065 12.3058 5.54764 12.5296C5.71382 12.6526 5.77272 12.8817 5.93374 12.9772C7.10388 13.675 7.13462 11.8292 6.85579 11.3122Z" fill="white"/>
<path d="M9.57519 5.82997C9.22176 5.97121 8.63874 5.78031 8.255 5.74097C7.8446 5.69776 7.29017 5.93725 7.37852 6.47018C7.5232 7.3746 9.17726 6.77781 9.48425 7.0029C9.65172 7.12608 9.70934 7.35396 9.87036 7.4479C11.042 8.14573 11.0715 6.3012 10.7926 5.78289C10.5177 5.27468 9.91163 5.69497 9.57519 5.82997Z" fill="white"/>
<path d="M16.8974 21.3544C18.9546 22.7348 18.0207 18.5837 18.0207 18.5837C17.1451 17.9254 16.7994 18.9268 16.4374 19.127C16.0552 19.3415 15.1009 19.1715 14.6556 19.1517C12.6638 19.0679 12.7832 18.8348 12.2098 18.5876C10.7148 17.9512 11.2351 20.735 11.2351 20.735C11.3942 22.5041 12.8059 21.0981 12.8059 21.0981C13.6562 20.606 15.7748 20.657 16.165 20.9143C16.3785 21.0569 16.707 21.2256 16.8974 21.3544Z" fill="white"/>
<path d="M11.56 26.9257C11.95 28.6615 13.1648 27.0795 13.1648 27.0795C13.9398 26.4833 16.0466 26.2535 16.4689 26.459C16.6968 26.5717 17.0457 26.6959 17.2503 26.798C19.4743 27.8983 18.001 23.9038 18.001 23.9038C17.0467 23.3676 16.8361 24.4038 16.5067 24.6532C16.1552 24.9118 15.1872 24.8705 14.7434 24.9079C12.757 25.0879 12.8441 24.8359 12.2439 24.6697C10.6756 24.2335 11.56 26.9257 11.56 26.9257Z" fill="white"/>
<path d="M19.8195 14.1226C19.2015 13.5626 18.6363 14.1959 18.2487 14.2679C17.4352 14.4276 15.5141 14.1084 15.0356 13.4276C14.6172 12.8318 14.0865 12.5139 13.684 12.7732C12.7473 13.3674 12.8187 14.6437 13.2474 15.1476C13.868 15.8755 14.817 15.001 14.817 15.001C14.817 15.001 17.9135 15.0848 18.176 15.8401C18.4319 16.5704 19.0433 16.6372 19.3451 16.3519C20.0728 15.658 20.3314 14.591 19.8195 14.1226Z" fill="white"/>
</g>
<defs>
<clipPath id="clip0_1010_649">
<rect width="46" height="46" fill="white" transform="translate(0 46) rotate(-90)"/>
</clipPath>
</defs>
</svg>
