<svg width="46" height="46" viewBox="0 0 46 46" fill="none" xmlns="http://www.w3.org/2000/svg">
<g clip-path="url(#clip0_1010_181)">
<path d="M32.7116 16.7205C32.3961 16.7205 32.1403 16.4647 32.1403 16.1493C32.1403 15.8338 32.3961 15.578 32.7116 15.578C33.68 15.578 34.6393 15.7682 35.5341 16.1384C35.1905 11.2132 30.5556 7.009 25.2851 7.009C24.3386 7.009 23.5713 7.77636 23.5713 8.7228V17.8631C24.8335 17.8631 25.8564 16.8402 25.8564 15.578C25.8564 15.2625 26.1121 15.0067 26.4276 15.0067C26.7431 15.0067 26.9989 15.2625 26.9989 15.578C26.9997 16.1476 26.8577 16.708 26.5861 17.2084L27.9763 18.5989C28.1358 18.7395 28.2039 18.9571 28.1531 19.1635C28.1024 19.3699 27.9414 19.5311 27.735 19.5819C27.5286 19.6326 27.311 19.5649 27.1704 19.4056L25.8748 18.1099C25.2458 18.6857 24.424 19.0053 23.5713 19.0056V35.0011C23.5718 36.9508 24.9783 38.6161 26.9004 38.9427C28.8229 39.2691 30.7004 38.1617 31.3445 36.3215C31.9888 34.4814 31.212 32.4446 29.5057 31.5009C29.2296 31.3481 29.1297 31.0005 29.2826 30.7244C29.4354 30.4482 29.7833 30.3484 30.0591 30.5012C31.6814 31.3997 32.6948 33.1018 32.7116 34.9559C34.7751 34.6437 36.2513 32.7972 36.1018 30.7157C35.9523 28.6343 34.2273 27.0175 32.1403 27.0033C31.8248 27.0033 31.569 26.7475 31.569 26.4321C31.569 26.1166 31.8248 25.8608 32.1403 25.8608C33.9143 25.8627 35.5617 26.7799 36.4979 28.2864C38.1416 27.0382 39.0739 25.0669 38.9955 23.0045C38.9916 19.5356 36.1804 16.7247 32.7116 16.7205ZM26.4276 8.7228C25.7967 8.7228 25.2851 9.23438 25.2851 9.86533C25.2851 10.1808 25.0293 10.4366 24.7138 10.4366C24.3983 10.4366 24.1426 10.1808 24.1426 9.86533C24.1426 8.60342 25.1657 7.58027 26.4276 7.58027C26.7431 7.58027 26.9989 7.83606 26.9989 8.15154C26.9989 8.46701 26.7431 8.7228 26.4276 8.7228ZM27.5702 37.8574C25.9936 37.8557 24.7158 36.5779 24.7138 35.0011C24.7138 34.6856 24.9696 34.4298 25.2851 34.4298C25.6006 34.4298 25.8564 34.6856 25.8564 35.0011C25.8564 35.9478 26.6237 36.7148 27.5702 36.7148C27.8856 36.7148 28.1414 36.9706 28.1414 37.2861C28.1414 37.6016 27.8856 37.8574 27.5702 37.8574ZM28.7127 28.7171C28.1531 28.7171 27.6059 28.5514 27.14 28.2413L25.9746 29.4067C25.7506 29.6231 25.3942 29.62 25.1738 29.3997C24.9534 29.1793 24.9504 28.8231 25.1668 28.5989L26.3322 27.4334C26.022 26.9676 25.8566 26.4206 25.8564 25.8608C25.8564 25.5453 26.1121 25.2895 26.4276 25.2895C26.7431 25.2895 26.9989 25.5453 26.9989 25.8608C26.9989 26.8075 27.7662 27.5746 28.7127 27.5746C29.0282 27.5746 29.284 27.8304 29.284 28.1459C29.284 28.4613 29.0282 28.7171 28.7127 28.7171ZM29.284 11.0079C29.284 10.6924 29.5397 10.4366 29.8552 10.4366C31.4321 10.4386 32.7099 11.7164 32.7116 13.2929C32.7116 13.6084 32.4558 13.8642 32.1403 13.8642C31.8248 13.8642 31.569 13.6084 31.569 13.2929C31.569 12.3465 30.8019 11.5791 29.8552 11.5791C29.5397 11.5791 29.284 11.3233 29.284 11.0079ZM34.258 23.9796C34.0348 24.2028 33.6733 24.2028 33.4502 23.9796L31.9991 22.5286C31.5333 22.8388 30.9863 23.0045 30.4265 23.0045C30.111 23.0045 29.8552 22.7487 29.8552 22.4332C29.8552 22.1177 30.111 21.8619 30.4265 21.8619C31.3732 21.8619 32.1403 21.0948 32.1403 20.1481C32.1403 19.8326 32.3961 19.5769 32.7116 19.5769C33.027 19.5769 33.2828 19.8326 33.2828 20.1481C33.2828 20.708 33.1171 21.255 32.8069 21.7208L34.258 23.1718C34.4811 23.395 34.4811 23.7565 34.258 23.9796Z" fill="#F69323"/>
<path d="M22.4287 8.7228C22.4287 7.77636 21.6617 7.009 20.7149 7.009C15.4444 7.009 10.8098 11.2132 10.4659 16.1384C11.361 15.7682 12.32 15.578 13.2885 15.578C13.604 15.578 13.8597 15.8338 13.8597 16.1493C13.8597 16.4647 13.604 16.7205 13.2885 16.7205C9.8196 16.7247 7.00873 19.5356 7.00455 23.0045C6.92644 25.0669 7.85838 27.0382 9.50216 28.2864C10.4386 26.7799 12.086 25.8627 13.8597 25.8608C14.8065 25.8608 15.5735 25.0937 15.5735 24.147C15.5735 23.8315 15.8293 23.5757 16.1448 23.5757C16.4603 23.5757 16.7161 23.8315 16.7161 24.147C16.7161 24.7068 16.5504 25.2538 16.2402 25.7196L17.4056 26.8851C17.5543 27.0287 17.6137 27.241 17.5615 27.4407C17.5091 27.6404 17.3532 27.7963 17.1535 27.8488C16.9537 27.9009 16.7415 27.8415 16.5978 27.6929L15.4324 26.5275C14.9666 26.8376 14.4196 27.0033 13.8597 27.0033C11.7736 27.0189 10.0497 28.636 9.90105 30.7171C9.75237 32.798 11.2285 34.6437 13.2915 34.9559C13.3072 33.1018 14.3194 31.3997 15.9409 30.5001C16.2171 30.3472 16.5646 30.4471 16.7175 30.7232C16.8703 30.9994 16.7705 31.347 16.4946 31.4998C14.7883 32.4435 14.0115 34.4797 14.6556 36.3202C15.2996 38.1603 17.1766 39.2677 19.0988 38.9416C21.0209 38.6155 22.4279 36.9508 22.4287 35.0011V8.7228ZM12.7864 23.6449C12.9348 23.7883 12.9945 24.0008 12.9423 24.2005C12.8899 24.4003 12.7339 24.5562 12.5342 24.6084C12.3345 24.6608 12.122 24.6011 11.9786 24.4527C11.5817 24.0575 11.3108 23.5537 11.2001 23.0045H9.28961C8.97413 23.0045 8.71835 22.7487 8.71835 22.4332C8.71835 22.1177 8.97413 21.8619 9.28961 21.8619H11.2001C11.3108 21.313 11.5817 20.8092 11.9786 20.414C12.122 20.2653 12.3345 20.2059 12.5342 20.258C12.7339 20.3105 12.8899 20.4664 12.9423 20.6661C12.9945 20.8658 12.9348 21.0781 12.7864 21.2215C12.1175 21.8909 12.1175 22.9757 12.7864 23.6449ZM14.431 13.2929C14.431 13.6084 14.1752 13.8642 13.8597 13.8642C13.5443 13.8642 13.2885 13.6084 13.2885 13.2929C13.2904 11.7164 14.5682 10.4386 16.1448 10.4366C16.4603 10.4366 16.7161 10.6924 16.7161 11.0079C16.7161 11.3233 16.4603 11.5791 16.1448 11.5791C15.1984 11.5791 14.431 12.3465 14.431 13.2929ZM16.5448 20.5481C16.3205 20.7646 15.9643 20.7615 15.744 20.5412C15.5236 20.3208 15.5205 19.9646 15.737 19.7403L17.1275 18.3498C16.8564 17.8497 16.7152 17.2896 16.7161 16.7205C16.7161 16.4051 16.9719 16.1493 17.2873 16.1493C17.6028 16.1493 17.8586 16.4051 17.8586 16.7205C17.8586 17.9827 18.8818 19.0056 20.1437 19.0056C20.4592 19.0056 20.7149 19.2614 20.7149 19.5769C20.7149 19.8923 20.4592 20.1481 20.1437 20.1481C19.2918 20.1476 18.4709 19.8285 17.8422 19.2536L16.5448 20.5481ZM20.7149 36.1436C20.3995 36.1436 20.1437 35.8878 20.1437 35.5723C20.1437 34.6259 19.3766 33.8585 18.4299 33.8585C18.1144 33.8585 17.8586 33.6027 17.8586 33.2873C17.8586 32.9718 18.1144 32.716 18.4299 32.716C20.0067 32.7179 21.2845 33.9958 21.2862 35.5723C21.2862 35.8878 21.0304 36.1436 20.7149 36.1436ZM21.2862 10.4366C20.9707 10.4366 20.7149 10.1808 20.7149 9.86533C20.7149 9.23438 20.2034 8.7228 19.5724 8.7228C19.2569 8.7228 19.0011 8.46701 19.0011 8.15154C19.0011 7.83606 19.2569 7.58027 19.5724 7.58027C20.8346 7.58027 21.8575 8.60342 21.8575 9.86533C21.8575 10.1808 21.6017 10.4366 21.2862 10.4366Z" fill="#F69323"/>
</g>
<defs>
<clipPath id="clip0_1010_181">
<rect width="32" height="32" fill="white" transform="translate(7 7)"/>
</clipPath>
</defs>
</svg>
